<svg xmlns="http://www.w3.org/2000/svg" xml:space="preserve" width="1920" height="1080" viewBox="0 0 1920 1080"><path d="M1780.417 870.638c-.19-.496.363-3.157 1.23-5.913 2.491-7.928 3.615-16.096 4.294-31.222 1.949-43.41 4.466-53.613 17.82-72.234 17.523-24.432 53.308-39.991 81.76-35.547 12.442 1.943 19.435 27.688 13.128 48.33-8.126 26.595-22.878 40.083-75.011 68.585-14.384 7.864-29.877 18.639-36.421 25.33-3.504 3.581-6.065 4.588-6.8 2.67m18.731-18.098c3.095-2.187 6.253-4.414 7.018-4.95 1.017-.71 1.51-1.92 1.832-4.493.242-1.936.721-3.521 1.065-3.521.386 0 .451 1.27.17 3.32l-.457 3.32 1.588-1.04c.874-.573 4.936-2.957 9.026-5.298 8.946-5.12 8.01-3.666 8.945-13.902.425-4.65.952-7.998 1.17-7.44.22.557.152 4.01-.152 7.67-.303 3.662-.563 7.042-.579 7.512-.039 1.196 9.798-4.15 26.3-14.295 3.588-2.206 3.874-3.43 3.907-16.764.012-4.816.28-8.47.62-8.47.356 0 .507 4.388.374 10.868-.124 5.977-.08 10.867.099 10.867 2.6-.002 20.089-16.842 25.447-24.504 12.247-17.516 14.474-42.215 5.123-56.841-2.512-3.93-1.931-4.198-9.704 4.465l-6.731 7.502.353 23.342c.236 15.607.13 23.872-.317 24.94-.489 1.167-.68-3.515-.71-17.323-.053-24.698-.398-29.15-2.138-27.598-1.112.992-15.994 18.645-22.194 26.327a1048 1048 0 0 1-4.402 5.409c-3.885 4.734-3.84 4.555-4.842 18.97-1.28 18.381-1.627 21.703-2.273 21.703-.302 0-.433-.935-.293-2.077.14-1.143.562-7.112.935-13.265s.82-12.769.994-14.703l.316-3.516-2.188 2.557c-1.204 1.407-5.39 6.872-9.303 12.146l-7.114 9.589.417 5.271c.435 5.51-.155 14.865-.937 14.865-.25 0-.336-3.56-.19-7.914.355-10.687 0-11.092-4.322-4.985-4.123 5.823-21.523 31.931-23.721 35.593-1.77 2.949-2.59 3.347 6.868-3.337m28.96-39.493c0-.879.287-1.598.639-1.598.351 0 .639.719.639 1.598s-.288 1.598-.64 1.598c-.351 0-.639-.719-.639-1.598m30.29-25.09c.184-.616.112-2.917-.159-5.115-.462-3.758-.063-5.242.804-2.984.676 1.762.438 9.217-.295 9.217-.375 0-.532-.503-.35-1.119m26.359-12.714c-.386-5.485-.247-7.402.475-6.57.536.615 1.026 12.73.515 12.73-.306 0-.752-2.771-.99-6.16m-1.271-11.259c-.607-2.266-.467-5.593.236-5.593.352 0 .64 1.582.64 3.516 0 3.766-.259 4.38-.876 2.077m-87.965 82.624c3.253-5.098 7.76-11.962 10.016-15.254 4.99-7.28 4.946-7.35-1.973-3.216-3.044 1.82-5.719 3.124-5.944 2.898-.539-.538-.885-.297 7.043-4.9 4.04-2.344 7.683-4.973 8.75-6.315 2.94-3.696 11.361-15.705 11.167-15.924-.306-.347-9.033 4.232-16.378 8.592-3.876 2.3-7.216 4.014-7.422 3.809-.663-.664 8.198-6.014 19.345-11.681 6.794-3.454 7.173-3.76 10.867-8.75 4.641-6.27 13.927-18.07 21.654-27.515 3.14-3.839 5.303-6.82 4.808-6.626-.495.195-10.026 3.983-21.18 8.418-19.057 7.577-22.73 8.876-21.24 7.506.335-.307 10.532-4.511 22.662-9.343 21.315-8.49 22.14-8.883 24.611-11.717 1.407-1.613 5.846-6.651 9.865-11.197l7.308-8.264-11.143.346c-6.13.19-11.791.549-12.582.797-.833.261-1.438.182-1.438-.188 0-1.15 2.71-1.499 14.606-1.878l11.73-.374 2.449-2.624c3.29-3.526 2.451-3.811-9.927-3.37-26.109.93-52.374 14.648-65.996 34.471-5.273 7.674-5.344 8.03-1.022 5.098 9.037-6.13 30.26-15.716 30.26-13.668 0 .347-1.507 1.132-3.35 1.744-18.01 5.982-31.36 14.775-34.864 22.962-3.394 7.929-3.232 8.191 2.963 4.781 3.696-2.034 6.485-3.118 6.485-2.521 0 .378-2.885 2.038-6.41 3.688-5.952 2.787-6.456 3.168-7.036 5.323-1.5 5.566-2.58 16.046-3.184 30.92-.624 15.369-1.43 26.556-2.302 31.963-.55 3.407-.23 3.033 6.802-7.991m5.467-49.942c.621-1.004 14.952-7.825 15.433-7.344.528.528.829.351-7.564 4.444-7.736 3.772-8.605 4.092-7.869 2.9m20.727-9.181c0-.418 8.74-4.803 9.573-4.803 1.704 0 .202 1.145-4.002 3.048-4.525 2.049-5.571 2.378-5.571 1.755m22.056-34.204c-.168-.273 1.057-.83 2.723-1.238s3.532-.892 4.147-1.076c.615-.183 1.119-.062 1.119.27 0 .769-7.578 2.707-7.989 2.044m-1.6-12.731c0-.736 6.5-2.268 7.744-1.826.802.286-1.125.94-5.986 2.035-.967.218-1.758.124-1.758-.21m3.561-27.912c-.552-.552-1.004-1.104-1.004-1.226s5.07-9.378 11.267-20.57a43292 43292 0 0 0 39.833-72.128c2.71-4.923 8.933-16.194 13.83-25.049l8.904-16.099.185 4.282.184 4.282-10.34 18.849c-10.233 18.655-14.927 27.15-39.01 70.604-12.584 22.704-14.409 26.223-12.235 23.594.62-.749 5.313-6.07 10.43-11.826 16.636-18.71 31.169-37.354 43.97-56.41 5.682-8.46 6.849-9.873 7.015-8.502.248 2.05-.02 2.545-6.38 11.767-16.655 24.152-31.34 42.393-54.43 67.61-4.49 4.905-4.482 4.907 4.474.938 18.675-8.277 35.331-18.72 53.833-33.753l2.623-2.131v2.878c0 7.149-36.34 30.346-64.882 41.416-7.364 2.856-6.957 2.784-8.267 1.474m36.073-26.09c0-.292 3.68-4.599 8.178-9.571 9.999-11.054 16.13-18.369 23.114-27.58 2.932-3.867 5.434-7.15 5.558-7.297.125-.147.226.168.226.698 0 1.333-9.944 14.267-19.819 25.778-8.176 9.53-17.257 18.988-17.257 17.972m-114.64-4.015c-1.352-1.352.708-4.49 13.165-20.054 13.294-16.611 46.838-58.644 81.349-101.937a23888 23888 0 0 1 26.237-32.861c4.9-6.12 9.484-11.872 10.183-12.785.7-.913 5.303-6.687 10.228-12.831 4.926-6.145 9.307-11.61 9.735-12.146.636-.795.782-.315.799 2.614.021 3.781.2 3.445-5.722 10.795-3.157 3.92-37.154 46.53-64.256 80.537a104504 104504 0 0 1-47.408 59.438c-11.66 14.603-21.098 26.654-20.974 26.78.378.382 16.66-12.928 26.83-21.934 44.508-39.41 77.2-81.71 105.26-136.19 5.633-10.938 6.257-11.9 6.273-9.671.034 4.87-15.096 32.65-31.203 57.295-26.603 40.701-65.4 82.038-105.782 112.704-6.307 4.79-6.207 4.913 2.21 2.722 61.205-15.926 109.9-60.988 131.643-121.819l3.084-8.63.033 6.91c.074 15.629-18.62 49.247-40.097 72.11-18.546 19.742-47.042 39.329-69.701 47.908-18.67 7.069-40.187 12.743-41.885 11.045zm-53.098-10.819c-.538-1.402.248-2.448 22.318-29.668 6.155-7.591 82.97-103.406 94.118-117.398 2.9-3.64 4.955-6.617 4.567-6.617s-5.061 1.428-10.386 3.172-14.86 4.743-21.188 6.663c-6.329 1.919-12.37 3.784-13.424 4.144s-5.226 1.47-9.27 2.467c-7.206 1.777-7.355 1.85-7.55 3.71-5.647 53.776-57.21 101.218-110.392 101.567l-8.31.055v-1.567c0-1.253 3.968-5.07 19.817-19.065 10.899-9.623 24.275-21.47 29.725-26.327s20.696-18.391 33.88-30.078c13.185-11.686 24.664-21.91 25.51-22.72 1.511-1.447 1.394-1.437-7.032.65-12.696 3.144-22.743 5.456-23.705 5.456-.467 0-3.006 1.606-5.642 3.569-42.454 31.611-99.098 39.823-149.393 21.656-7.145-2.58-20.251-8.726-20.92-9.809-1.048-1.694.296-3.128 3.33-3.556 12.81-1.803 24.668-4.03 60.869-11.428 51.192-10.463 77.337-11.437 104.054-3.877l5.93 1.678 6.216-1.417c12.27-2.797 27.377-6.545 30.828-7.65 1.934-.618 5.242-1.512 7.352-1.987 5.463-1.228 19.733-.46-113.148-6.09-23.288-.986-39.964-1.947-40.433-2.33-2.117-1.722-.302-3.74 8.79-9.77 47.991-31.832 108.803-28.923 153.042 7.32 2.494 2.043 5.082 4.326 5.752 5.073s1.532 1.358 1.917 1.358c2.677 0 47.338-14.472 48.322-15.658.44-.529 1.57-.962 2.514-.962 1.934 0 10.281-2.668 9.306-2.974-.77-.242-59.945-12.982-143.823-30.963-72.722-15.59-64.884-13.7-64.884-15.636 0-4.97 33.537-17.656 56.636-21.424 60.036-9.792 124.792 16.061 159.14 63.535l1.305 1.805 8.603-3.193c10.61-3.939 31.412-12.267 42.362-16.959 7.51-3.218 8.172-3.397 7.99-2.155-.152 1.04-1.68 2.002-6.59 4.15-7.866 3.44-41.214 16.686-47.221 18.755-2.415.832-4.532 1.88-4.703 2.327s-1.073.814-2.002.813c-.93 0-4.449.934-7.821 2.077l-6.131 2.08-.422 10.867c-2.286 58.85-33.952 108.576-85.122 133.666-17.954 8.803-43.396 16.015-44.681 12.665m17.193-6.707c39.732-10.732 75.338-40.771 93.643-79.003 2.9-6.054 9.617-24.284 9.58-25.996-.01-.41-3.26 5.584-7.228 13.319-6.895 13.442-15.246 28.048-16.47 28.805-1.332.823-.297-1.314 4.547-9.393 5.134-8.562 15.18-27.837 17.946-34.435.81-1.934 1.746-3.702 2.078-3.929 1.404-.961 5.042-27.918 4.135-30.639-.153-.46-1.4 1.593-2.77 4.56-23.36 50.573-58.897 95.332-104.502 131.62-8.37 6.66-9.09 7.33-7.351 6.835.703-.2 3.58-.985 6.392-1.744m10.654-6.913c.118-.315 3.09-2.808 6.606-5.54 13.82-10.739 26.514-22.86 38.95-37.196 3.127-3.604 5.782-6.553 5.901-6.553 1.664 0-8.457 11.953-19.241 22.724-12.412 12.398-33.375 29.684-32.216 26.565m31.857-22.649c0-.114 4.539-4.789 10.087-10.387 13.979-14.107 24.908-28.435 33.998-44.572 1.921-3.41 3.71-6.2 3.975-6.2 2.15 0-12.294 22.87-22.407 35.478-8.293 10.339-25.653 27.719-25.653 25.681m22.39-30.955c.033-1.04 4.697-6.795 4.932-6.088.139.414-.703 2.05-1.869 3.636-1.977 2.686-3.101 3.586-3.064 2.452m27.92-35.638c.587-1.23 1.301-2.238 1.588-2.238.734 0 .657.44-.455 2.59-1.383 2.674-2.422 2.351-1.133-.352m-84.558 82.121c36.99-30.694 68.353-70.256 90.269-113.862 2.59-5.152 4.708-9.553 4.708-9.78 0-.499 2.404-3.485-90.97 112.991-15.009 18.722-17.24 21.691-14.667 19.515.615-.52 5.412-4.509 10.66-8.864m12.976-15.708c-.565-.566 6.497-11.017 9.616-14.23 2.558-2.636.96.54-2.657 5.28-2.3 3.015-4.63 6.35-5.179 7.41-1.06 2.052-1.172 2.148-1.78 1.54m13.598-18.467c.825-.877 1.64-1.454 1.812-1.282.425.424-1.843 2.878-2.66 2.878-.358 0 .024-.718.848-1.596m12.148-16.032c0-1.546 28.923-36.709 30.195-36.709 1.015 0 .334.943-5.473 7.574-6.086 6.951-13.96 16.634-20.24 24.89-3.121 4.103-4.482 5.391-4.482 4.245m33.24-40.222c.824-.878 1.64-1.455 1.811-1.282.425.424-1.843 2.878-2.66 2.878-.357 0 .024-.718.848-1.596M1678.48 633.64c32.563-6.213 63.527-29.186 77.845-57.755 1.98-3.95 1.623-3.58-4.613 4.794-5.675 7.621-14.37 17.9-15.142 17.9-1.031 0-.44-.9 3.524-5.362 10.833-12.194 21.047-26.917 23.41-33.743 2.212-6.393 4.02-13.2 3.732-14.06-.114-.343-1.915 1.77-4 4.695-23.24 32.595-52.434 58.73-89.509 80.133l-9.589 5.536 3.836-.433c2.11-.238 6.837-1.005 10.506-1.705m-1.23-1.66c0-.264 2.512-1.775 5.572-3.357 10.787-5.577 24.297-14.696 34.314-23.16 5.595-4.729 7.705-5.28 2.655-.695-11.146 10.122-42.588 30.234-42.54 27.211m26.842-13.172c0-.124 2.085-1.607 4.634-3.295 13.426-8.892 27.113-21.282 35.805-32.412 1.842-2.36 3.566-4.3 3.83-4.315 3.118-.163-15.422 19.826-26.778 28.87-8.942 7.122-17.491 12.573-17.491 11.152m21.095-20.104c0-.692 4.382-4.907 4.734-4.555.29.29-3.88 5.068-4.423 5.068-.17 0-.31-.23-.31-.513m24.931-22.4c0-.627 2.126-2.657 2.782-2.657.244 0-.027.72-.603 1.598-1.027 1.567-2.179 2.127-2.179 1.058m-72.236 48.909c29.216-17.187 56.092-40.832 76.744-67.517 5.307-6.858 8.017-10.681 6.796-9.588-.215.192-2.034 1.774-4.043 3.516-4.703 4.077-20.802 18.322-27.397 24.243a1067 1067 0 0 1-7.984 7.098 335 335 0 0 0-3.565 3.148c-.382.351-5.397 4.81-11.144 9.908a34073 34073 0 0 0-16.924 15.023 7306 7306 0 0 1-13.634 12.075c-9.335 8.244-9.327 8.258 1.152 2.094m10.228-9.254c0-.903 9.742-10.33 10.312-9.978.444.275-9.393 10.496-10.1 10.496-.117 0-.211-.233-.211-.518m12.716-12.304c.841-.7 1.673-1.13 1.85-.953.548.548-1.243 2.27-2.338 2.247-.805-.016-.694-.31.488-1.294m11.576-9.992c0-1.12 8.913-9.447 20.137-18.816 6.41-5.35 7.351-6.012 7.351-5.166 0 .322-3.955 3.917-8.79 7.99-8.204 6.914-10.035 8.535-16.3 14.435-1.32 1.241-2.398 1.942-2.398 1.557m29.885-26.533c.772-.771 1.626-1.18 1.9-.906.272.273-.063.904-.744 1.403-1.926 1.408-2.72 1.067-1.156-.497m-91.133 8.392c23.18-2.865 50.831-13.411 69.239-26.408l2.557-1.805-6.062.418c-7.866.543-25.737 2.886-48.913 6.412-26.789 4.076-30.701 4.619-43.47 6.037-17.634 1.958-31.458 2.74-44.209 2.502-6.383-.12-11.484-.021-11.335.219.54.87 14.179 5.8 21.983 7.945 19.787 5.442 40.817 7.076 60.21 4.68m-37.517-2.558c-6.637-.912-14.383-2.653-14.383-3.234 0-.307.072-.554.16-.55.088.006 2.893.577 6.233 1.27s8.734 1.451 11.986 1.684 5.913.669 5.913.968c0 .653-4.62.589-9.909-.138m18.22-.4c0-.37 3.556-.811 8.47-1.052 11.729-.577 26.683-2.978 36.437-5.851 1.67-.492 3.036-.63 3.036-.307 0 1.143-13.722 4.364-25.798 6.056-9.062 1.27-22.146 1.951-22.146 1.154m-24.293-7.293c0-.465 5.62-1.199 9.238-1.207 1.528-.003 2.285.223 1.918.573-.685.652-11.156 1.247-11.156.634m19.178-1.14c0-.335 1.942-.8 4.315-1.03 22.871-2.228 47.064-5.318 67.805-8.661 12.632-2.037 14.13-2.189 13.189-1.342-1.205 1.083-36.906 6.294-61.866 9.03a6278 6278 0 0 0-20.406 2.259c-1.75.204-3.037.096-3.037-.256m-9.694-4.178c13.748-1.471 22.246-2.626 50.076-6.801 13.948-2.093 31.325-4.52 38.616-5.393s13.365-1.697 13.498-1.83c.376-.376-10.35-2.28-16.744-2.972-13.02-1.41-34.017-.373-52.1 2.57-9.085 1.48-74.743 14.458-77.669 15.353-3.11.952 34.035.175 44.323-.927m16.726-7.958c0-.397.503-.723 1.119-.724.615 0 8.885-.718 18.378-1.593 19.437-1.791 19.995-1.822 19.146-1.047-.334.305-7.8 1.181-16.589 1.948-8.79.766-17.348 1.561-19.018 1.766-2.049.25-3.036.137-3.036-.35m46.666-4.395c0-.602 8.35-1.599 8.896-1.063.547.537-.38.787-4.581 1.232-2.702.286-4.316.223-4.316-.17m93.33-20.561c-1.687-.956-19.814-5.063-29.725-6.734-29.1-4.907-59.453-5.473-88.217-1.645-10.819 1.44-18.128 2.697-17.26 2.967.352.11 27.968 1.356 61.369 2.77s62.455 2.663 64.564 2.776c8.185.44 10.23.41 9.27-.134m-64.18-3.336c-4.887-.294-9.034-.684-9.216-.866-.832-.831.843-.897 8.55-.333 4.55.333 13.379.613 19.62.624 7.125.011 11.346.256 11.346.657 0 .76-17.103.713-30.3-.082m32.857.082c0-.351.88-.639 1.956-.639 1.14 0 1.79.266 1.56.64-.217.351-1.097.639-1.955.639s-1.56-.288-1.56-.64m-73.396-2.572c-3.23-.47-4.49-.96-3.9-1.514.146-.138 1.704-.01 3.462.282s5.138.55 7.512.57c2.425.021 4.315.318 4.315.677 0 .734-6.304.726-11.39-.015m13.626.015c.217-.351 1.097-.639 1.955-.639s1.56.288 1.56.64c0 .351-.88.639-1.955.639-1.14 0-1.79-.267-1.56-.64m98.125 4.792c0-1.171-17.657-12.869-20.206-13.386-.665-.135-4.23-1.123-7.92-2.195-8.535-2.48-18.095-4.728-27.648-6.5-4.132-.767-7.512-1.655-7.512-1.973s.648-.44 1.439-.272c.79.169 4.746.912 8.79 1.651 6.163 1.128 21.644 4.754 25.959 6.08 3.22.99-4.016-2.385-9.494-4.43-34.709-12.947-75.311-8.661-107.08 11.302-6.782 4.262-6.73 4.316 2.557 2.62 42.766-7.814 86.22-6.456 127.642 3.987 6.126 1.545 11.28 2.95 11.454 3.123.413.414 2.02.408 2.02-.007zm-136.16-11.704c0-.943 6.993-2.468 19.816-4.32 9.842-1.421 32.357-2.486 36.438-1.723 3.14.587 2.49.667-6.073.74-16.537.143-39.758 2.78-49.063 5.573-.615.185-1.119.063-1.119-.27m101.321-2.493c-1.66-.4-2.808-1.465-1.566-1.453 1.674.016 3.803.768 3.803 1.344 0 .595-.181.603-2.237.109m-36.757-2.101c-1.22-.39-.728-.527 2.078-.576 2.066-.035 3.675.216 3.675.576 0 .743-3.432.743-5.753 0m26.21-.367c-11.74-2.886-40.374-4.28-54.497-2.652-2.627.303-4.315.262-4.315-.105 0-1.68 35.032-2.331 45.067-.838 9.11 1.355 19.498 3.523 19.498 4.069 0 .7-1.475.578-5.754-.474m109.312-6.366c0-.425-10.02-5.095-20.052-9.346-47.977-20.33-102.543-31.236-152.434-30.467l-12.991.2 30.57 6.536a41249 41249 0 0 1 126.78 27.352c31.136 6.774 28.127 6.161 28.127 5.725m-44.748-13.084c-.713-.461-.345-.622 1.438-.63 1.319-.005 2.398.278 2.398.63 0 .814-2.576.814-3.836 0m-10.867-1.398c-14.605-2.518-41.487-8.412-43.47-9.53-1.877-1.058.813-.616 11.835 1.942 11.556 2.682 34.216 7.063 36.551 7.066.77.001 1.579.29 1.796.641.472.764-1.83.723-6.712-.119m-67.122-15.223c0-.766 2.372-.766 4.155 0 .99.426.666.56-1.438.595-1.494.024-2.717-.243-2.717-.595m-7.671-1.034c-6.527-1.424-14.703-4.06-14.703-4.74 0-.797-.143-.819 3.953.59 1.932.665 6.292 1.852 9.689 2.636 3.396.785 6.175 1.68 6.175 1.988 0 .662.165.677-5.114-.474m135.635 29.321c-4.386-6.154-23.104-23.657-24.426-22.84-.308.19-4.017-1.388-8.244-3.506-10.085-5.056-23.64-10.845-35.52-15.17-5.272-1.92-9.706-3.612-9.855-3.76-2.934-2.934 24.277 7.367 43.229 16.365 4.32 2.051 7.854 3.637 7.854 3.525 0-1.361-21.57-14.152-31.004-18.385-42.989-19.29-96.903-18.65-136.182 1.615l-3.175 1.638 10.867-.358c58.211-1.918 124.865 12.325 178.033 38.041 5.098 2.466 9.36 4.509 9.472 4.539s-.36-.737-1.05-1.704m-44.062-27.166c-1.954-.627-2.867-1.76-1.418-1.76.959 0 5.094 1.79 5.094 2.205 0 .488-1.23.34-3.676-.445m-11.255-4.702c-19.75-8.559-54.283-16.236-73.034-16.236-2.15 0-3.448-.273-3.448-.726 0-1.394 22.47.854 36.437 3.645 17.7 3.536 46.026 12.775 46.026 15.01 0 .85-.323.76-5.98-1.693m-33.227-5.053c-3.057-.84-4.086-1.369-3.568-1.833.404-.363 7.85 1.578 8.544 2.228.849.794-1.256.627-4.976-.395m-19.283-4.51c-17.498-3.362-38.368-5.08-56.095-4.619-13.533.353-15.21-.457-2.237-1.08 18.557-.89 65.313 3.723 68.528 6.763.9.851-1.559.595-10.196-1.065m59.149 204.441c.01-.264 2.99-2.712 6.623-5.441 18.332-13.77 50.64-45.49 58.335-57.272.08-.125.47-.119.866.013 1.092.364-12.657 16.294-23.721 27.486-16.003 16.187-42.213 38.108-42.103 35.214m90.116-15.094c0-1.813 10.055-22.164 11.876-24.037 1.724-1.774.9.427-2.284 6.107-1.756 3.133-4.391 8.5-5.855 11.929-2.15 5.032-3.737 7.581-3.737 6m-76.318-14.355c-.764-1.235 12.648-19.607 13.796-18.897.316.195-.735 1.887-2.335 3.76s-4.757 6.169-7.015 9.547c-2.259 3.377-4.26 5.893-4.446 5.59m39.517-12.422c19.261-19.29 32.686-37.202 45.994-61.368 2.35-4.266 4.62-6.252 2.558-2.238-12.288 23.93-32.64 50.841-52.61 69.565-11.421 10.71-8.925 7.043 4.058-5.959m51.504-1.857c0-1.003 3.237-5.187 3.674-4.75.354.353-2.793 5.488-3.363 5.488-.171 0-.31-.332-.31-.738m-75.01-7.406c-.471-.763 3.235-4.393 3.854-3.775.25.25-.431 1.338-1.512 2.419s-2.135 1.69-2.342 1.356m39.851-17.777c0-.727 5.39-7.96 5.933-7.96.845 0 .402.877-2.417 4.771-2.265 3.13-3.516 4.264-3.516 3.19m17.9-3.424c0-.36 1.559-3.227 3.465-6.37 6.868-11.327 12.206-21.115 19.394-35.562 4.023-8.086 7.156-13.805 6.963-12.709-1.176 6.67-29.823 59.157-29.823 54.64m-40.91-1.18c0-.586 6.387-9.06 15.29-20.295 5.177-6.533 20.112-24.09 21.7-25.51 3.08-2.754.997.353-4.463 6.652-6.527 7.529-23.574 28.723-28.408 35.318-2.896 3.95-4.126 5.097-4.12 3.836m57.53-38.177c0-.988 2.869-5.973 3.288-5.714.59.365-2.017 6.016-2.776 6.016-.282 0-.512-.136-.512-.302m-16.62-11.724c0-.286.862-1.347 1.917-2.357 1.09-1.045 1.918-1.473 1.918-.992 0 .465-.734 1.526-1.631 2.357-1.74 1.612-2.205 1.821-2.205.992M1499.21 507.12c-6.824-.918-12.805-2.177-36.484-7.68-11.98-2.784-22.192-5.064-22.694-5.066-11.932-.046-4.082-6.881 20.823-18.13 23.127-10.446 35.746-12.521 62.735-10.318 13.23 1.08 14.52 1.084 24.203.062 23.204-2.447 29.91-2.503 37.716-.314 7.853 2.203 8.16 4.345 1.119 7.811-4.554 2.243-11.011 6.622-26.945 18.274-18.833 13.773-37.341 18.475-60.473 15.361m30.646-5.361c10.422-2.396 17.442-6.261 34.73-19.123 4.827-3.592 10.494-7.598 12.593-8.901 3.5-2.175 3.659-2.367 1.918-2.334-5.071.099-6.412.822-12.838 6.925-6.444 6.12-8.996 8.155-9.543 7.608-.169-.169 1.782-2.146 4.335-4.393 6.64-5.845 9.734-8.898 9.016-8.898-5.263 0-8.274 1.466-13.643 6.64-8.49 8.183-22.567 18.95-23.524 17.994-.227-.227-.106-.612.269-.856 8.379-5.472 26.51-20.734 25.653-21.592-1.522-1.522-16.366 3.928-20.027 7.353-3.98 3.724-13.818 10.278-15.427 10.278-1.678 0-.715-1 2.366-2.457 5.323-2.517 14.986-10.347 12.73-10.315-4.683.066-12.99 3.288-19.217 7.452-5.975 3.995-15.13 8.516-17.244 8.516-1.486 0 .304-1.07 5.517-3.3 4.286-1.831 14.383-7.77 14.383-8.456 0-.114-3.811.603-8.47 1.591-4.658.989-12.929 2.411-18.378 3.161-6.346.874-11.288 1.926-13.744 2.927-4.632 1.888-10.548 3.495-10.548 2.867 0-.25 2.038-1.112 4.528-1.914 5.975-1.925 5.493-2.09-3.935-1.358-4.37.34-10.231.624-13.026.632-2.807.008-4.81.256-4.475.553 1.235 1.094 36.77 9.042 47.273 10.573 4.37.637 24.413-.182 28.728-1.173m-38.924-4.12c.902-.851 6.04-1.57 6.04-.844 0 .336-1.078.79-2.397 1.008-3.387.56-4.363.516-3.643-.163m22.958-2.02c-.205-.331-.247-.602-.093-.602.153 0 1.35-.448 2.66-.995 1.57-.656 2.297-.743 2.134-.256-.352 1.056-4.246 2.59-4.701 1.853m34.23-3.638c.01-.414 3.878-3.272 5.267-3.89 1.509-.67.107 1.257-1.952 2.684-2.507 1.737-3.328 2.036-3.314 1.206m-81.192-2.71c29.116-1.925 32.104-3.617 6.712-3.799-8.736-.063-11.214-.253-10.291-.789 1.52-.882 23.621-.317 30.04.768 4.98.842 9.04.295 24.932-3.358 11.498-2.643 10.499-2.92-12.559-3.475-10.75-.259-17.739-.672-17.739-1.048 0-.638 25.837-.111 37.716.77 5.114.378 6.931.233 11.507-.923 6.998-1.768 6.09-1.979-12.458-2.893-7.73-.381-14.203-.856-14.383-1.056-.425-.47 25.79.405 31.635 1.056 3.85.428 5.86.202 14.383-1.621 5.45-1.166 12.638-2.481 15.973-2.923 5.379-.713 5.813-.862 3.836-1.32-2.632-.609-10.53-.168-22.046 1.23-9.722 1.18-24.097 1.3-33.469.278-24.562-2.676-50.653 3.771-74.246 18.348l-2.237 1.382 6.712-.007c3.692-.004 10.883-.283 15.982-.62m32.601-15.989c0-.351 1.583-.639 3.516-.639s3.516.288 3.516.64c0 .35-1.582.639-3.516.639s-3.516-.288-3.516-.64m403.05-6.368c-8.086-1.677-29.086-5.98-46.665-9.56-17.58-3.582-46.778-9.53-64.885-13.221-18.106-3.69-47.728-9.719-65.826-13.397-39.642-8.058-38.985-7.713-26.984-14.15 68.228-36.597 152.6-28.62 214.109 20.242l6.552 5.205v6.292l-6.503-5.438c-3.8-3.178-6.677-5.158-6.92-4.765-.262.423-3.494-.786-8.679-3.246-15.272-7.247-37.516-16.23-51.252-20.695-3.174-1.032-5-2.855-1.918-1.914 14.14 4.313 41.169 15.186 55.042 22.142 6.571 3.294 6.777 2.763.61-1.573-57.136-40.177-138.1-45.83-196.246-13.703-1.109.613 4.229.774 25.89.782 37.707.015 61.499 2.223 93.769 8.705 30.67 6.16 70.994 18.959 94.45 29.978 1.72.808 2.65 3.694.958 2.975-60.424-25.69-110.796-37.205-172.367-39.404-14.286-.51-38.233-.259-37.58.394.124.124 12.426 2.676 27.337 5.67 32.527 6.533 34.707 6.975 70.9 14.368 55.456 11.328 100.76 20.524 106.436 21.605l5.754 1.097.198 2.391c.24 2.896 1.932 2.978-16.18-.78m-26.05-14.546c-.966-.146-1.757-.568-1.757-.937 0-.385.615-.507 1.438-.286.791.212 1.942.39 2.557.394s1.119.296 1.119.648c0 .647-.207.658-3.356.181m-11.666-1.606c-17.521-2.823-51-9.647-52.809-10.764-1.815-1.122-.033-1.083 4.868.105 7.828 1.899 35.572 7.391 43.467 8.605 3.867.595 7.463 1.167 7.99 1.272s1.319.213 1.758.24.8.334.8.681c0 .684-1.127.658-6.074-.14m-216.068-8.481c-6.884-4.24-9.282-4.792-15.022-3.458-10.163 2.361-17.115-.483-22.651-9.269-5.528-8.771-14.184-33.594-16.047-46.018-.72-4.801-1.24-3.937-2.39 3.972-3.486 23.995-9.133 30.786-28.271 34.001-9.853 1.656-12.31 2.638-19.305 7.72-16.189 11.762-25.519 9.745-32.236-6.968-4.286-10.664-5.333-11.876-14.302-16.546-20.586-10.72-20.904-21.093-1.92-62.505 1.661-3.622 2-4.806 1.17-4.09-28.07 24.232-37.47 27.17-56.063 17.519-8.497-4.41-13.493-6.215-19.482-7.04-7.437-1.022-9.32-10.944-4.617-24.326 1.777-5.057.366-6.983-7.175-9.79-15.166-5.645-17.545-14.383-8.78-32.238 14.23-28.986 43.581-42.745 91.753-43.01 18.964-.104 21.612-.248 26.209-1.43 12.825-3.293 55.264-5.21 65.96-2.978 1.973.412 2.057.339 2.737-2.359 2.494-9.892 7.966-23.503 13.943-34.68 2.893-5.411 5.016-8.878 11.51-18.788.78-1.19-.084-.803-3.738 1.674-6.224 4.219-14.94 8.485-21.697 10.62-63.53 20.073-141.424-54.72-144.91-139.14-.53-12.82.532-14.196 5.843-7.576 12.006 14.97 31.36 21.72 71.63 24.985 30.628 2.482 42.975 5.625 59.77 15.216 17.407 9.939 36.64 27.159 54.977 49.221 9.427 11.343 7.902 10.81 14.31 5.014 20.566-18.603 43.111-33.901 95.322-64.682 50.754-29.922 72.893-45.45 96.637-67.78 7.729-7.268 7.802-7.318 10.868-7.295l3.086.022-8.648 8.448c-17.754 17.342-41.258 35.2-67.424 51.226-9.796 6-25.624 15.515-33.56 20.175-75.542 44.356-106.625 69.644-131.488 106.975-12.546 18.837-25.142 48.752-21.614 51.333 1.905 1.392 2.703 1.047 3.156-1.366 6.115-32.598 38.47-76.173 80.267-108.104 9.857-7.53 19.916-14.448 36.757-25.279 4.669-3.002 25.43-15.442 47.305-28.345 46.933-27.682 72.436-46.24 95.235-69.302 5.45-5.513 5.878-5.806 8.47-5.806 3.86 0 3.902-.061-8.296 11.89-23.62 23.141-47.82 40.62-92.852 67.062a4878 4878 0 0 0-12.466 7.35c-3.34 1.977-9.006 5.302-12.592 7.39s-6.463 3.969-6.393 4.182 4.186 4.671 9.147 9.908c30.281 31.967 44.473 55.644 49.956 83.347.917 4.632 1.083 10.058 1.115 36.446.026 21.806.28 32.615.857 36.437 2.493 16.513 7.489 28.688 15.18 36.994 6.284 6.789 5.695 8.28-2.81 7.115-52.157-7.142-99.46-40.747-121.93-86.62-18.388-37.542-13.659-72.206 13.645-100 4.859-4.947 4.414-4.857-3.581.722-46.75 32.627-77.383 68.972-89.874 106.63-4.297 12.952-4.292 12.653-.243 15.342 10.845 7.204 35.435 38.083 45.497 57.132.905 1.714 3.652 5.453 6.103 8.31 12.24 14.266 33.938 45.856 40.452 58.893 4.62 9.246 4.858 16.59.866 26.68-5.702 14.407-12.385 17.565-20.21 9.548l-3.54-3.626-1.098 6.755c-1.528 9.396-8.224 28.686-11.199 32.26-3.18 3.819-7.118 4.48-11.309 1.9m6.69-3.506c.644-.345 2.106-2.862 3.248-5.594 10.214-24.427 11.25-36.263 4.63-52.91-5.17-13.003-37.096-76.391-38.474-76.391-1.146 0-.534 1.522 4.95 12.306 6.997 13.757 13.523 27.868 13.523 29.238 0 1.593-.933-.087-5.141-9.262-2.258-4.922-6.753-14.127-9.987-20.456l-5.882-11.506-2.733.186c-1.503.102-2.833.287-2.956.41-.123.122 3.086 6.798 7.13 14.836 10.623 21.11 15.87 33.658 19.784 47.311 2.769 9.658 4.686 20.228 3.394 18.708-.125-.146-1.012-3.862-1.971-8.257-3.602-16.496-9.641-32.1-21.957-56.734l-8.07-16.14h-2.123c-2.108 0-2.117.012-1.224 1.757 3.721 7.281 16.683 44.245 22.47 64.085 4.117 14.109 11.823 44.706 11.823 46.94 0 1.89-1.347-.427-1.924-3.31-5.054-25.237-16.875-64.908-27.477-92.213a6386 6386 0 0 1-5.633-14.543c-.896-2.339-3.107-4.122-2.378-1.918 2.438 7.369 16.71 77.08 16.108 78.679-.45 1.197-.667.24-5.838-25.78-9.503-47.82-12.135-57.464-14.922-54.677-.295.295.657 32.619 1.525 51.8.223 4.927.131 7.328-.256 6.712-.536-.851-.884-7.904-2.42-49.005-.34-9.092-.52-10.366-1.5-10.622-1.029-.27-1.146.894-1.527 15.125-.226 8.479-.858 19.731-1.404 25.005-1.82 17.599-1.857 20.924-.344 31.004 3.955 26.346 14.245 54.111 21.98 59.308 3.665 2.462 5.726 2.74 12.123 1.642 8.06-1.385 10.985-.982 16.258 2.236 4.612 2.814 5.343 3.02 7.195 2.03m-48.015-57.865c-.21-.351-.587-2.042-.835-3.757-.25-1.715-.604-3.513-.79-3.996-.185-.482-.039-.877.326-.877s.991 1.584 1.393 3.52c.717 3.451.663 6.373-.094 5.11m40.085-22.273c-.585-1.352-.937-2.79-.782-3.197s.76.366 1.345 1.717c.585 1.352.937 2.79.782 3.197-.155.406-.76-.366-1.345-1.717m-112.175 71.47c1.728-.876 5.516-3.29 8.417-5.365 6.72-4.806 9.99-6.066 19.945-7.684 18.428-2.995 21.22-7.117 25.566-37.746 5.789-40.785 8.07-78.174 4.873-79.884-1.106-.592-6.434-.97-6.434-.456 0 7.777-12.118 77.968-13.74 79.59-.984.984-.71-1.27 1.27-10.47 4.172-19.387 8.553-45.758 10.9-65.613l.429-3.638-4.004 1.213c-2.202.666-4.214 1.44-4.47 1.72-1.675 1.824-18.826 48.99-27.498 75.62-6.064 18.62-8.45 24.863-7.329 19.178 1.405-7.13 23.538-70.45 31.264-89.444.918-2.256 1.56-4.21 1.428-4.343-.42-.42-6.437 1.232-7.206 1.978-3.503 3.402-27.538 74.197-34.75 102.357-.81 3.164-1.716 6.026-2.011 6.36-4.567 5.16 19.85-70.953 33.85-105.52l1.326-3.273-2.994-.358c-1.647-.197-3.453-.536-4.014-.754-.78-.302-1.482.624-2.992 3.95-1.084 2.39-3.883 8.517-6.219 13.615-4.421 9.65-10.784 24.214-12.986 29.725-6.738 16.867-9.107 22.388-9.692 22.583-1.436.478 13.183-34.793 24.595-59.34 2.697-5.801 4.951-10.706 5.01-10.9s-1.065-1.687-2.498-3.32l-2.606-2.968-3.442 5.877c-5.33 9.103-17.223 32.994-21.54 43.274a5196 5196 0 0 1-4.98 11.826c-.598 1.406-1.215 2.22-1.371 1.81-.819-2.151 15.9-38.171 25.582-55.114 5.343-9.351 5.34-9.336 3.655-13.49l-1.162-2.868-4.685 9.26c-12.672 25.051-29.326 59.699-32.566 67.753-2.098 5.213-8.793 19.888-9.279 20.337-1.181 1.09.82-4.043 6.972-17.88 10.701-24.068 13.908-30.84 26.907-56.82l12.327-24.64-1.268-3.4-1.269-3.4-4.478 4.386c-17.004 16.658-34.871 44.438-46.197 71.829-.944 2.285-2.67 6.474-3.834 9.31-8.394 20.443-6.577 29.11 7.586 36.179 10.821 5.4 12.313 7.04 16.99 18.677 4.95 12.315 9.571 14.867 18.622 10.28m33.189-32.83c0-1.513 1.992-7.707 2.599-8.083.804-.497.764-.117-.432 4.083-1.011 3.548-2.167 5.682-2.167 4m-53.058-24.07c0-.193.439-1.2.975-2.237 1.383-2.675 2.423-2.352 1.133.351-.918 1.927-2.108 2.991-2.108 1.886m170.935 30.334c3.94-3.1 8.306-15.056 7.96-21.8-.565-11.004-27.491-52.714-48.364-74.915-3.526-3.752-4.248-2.978-1.233 1.322 9.508 13.563 28.632 42.577 28.289 42.92-.235.234-.68-.004-.99-.528-5.128-8.673-32.065-47.021-33.144-47.184-1.892-.285-2.01-.53 4.607 9.607 6.839 10.48 15.148 24.019 20.71 33.747 11.266 19.701 19.711 35.654 19.165 36.2-.464.464-1.393-1.096-6.522-10.95-5.015-9.635-17.165-31.085-21.804-38.494a5460 5460 0 0 0-10.8-17.073l-8.31-13.098-2.397-.027c-3.002-.034-4.527-3.844 11.417 28.513 23.448 47.585 26.459 54.566 26.459 61.35 0 .787.404 1.812.898 2.276.494.465 2.91 2.787 5.369 5.16 4.803 4.636 6.039 5.06 8.69 2.974m-6.647-40.85c-1.065-2.11-1.648-3.835-1.297-3.835.352 0 1.51 1.726 2.576 3.835 1.065 2.11 1.648 3.836 1.297 3.836-.352 0-1.51-1.726-2.576-3.836m-213.181-7.334c7.508-2.52 12.006-5.51 23.642-15.715 3.868-3.391 8.545-7.304 10.393-8.694 2.508-1.886 4.17-3.937 6.543-8.078 8.966-15.635 19.284-29.475 30.443-40.83 5.355-5.45 5.915-6.228 4.749-6.598-1.325-.42-4.909 2.004-39.867 26.969-5.563 3.972-10.443 7.222-10.845 7.222-1.459 0-1.874.306 36.857-27.184l10.785-7.655-5.351-.367-5.351-.368-7.991 4.795c-23.198 13.919-49.492 32.187-67.761 47.078-5.594 4.56-6.393 5.09-6.393 4.248 0-1.115 19.034-15.944 33.88-26.395 16.118-11.346 27.672-18.907 39.818-26.056 6.48-3.814 6.819-4.114 5.61-4.96-2.059-1.443-22.88 7.327-35.274 14.856-3.516 2.136-5.49 2.8-4.746 1.595 1.165-1.885 23.208-12.842 33.461-16.633 3.143-1.162 3.942-1.716 3.631-2.518-.219-.566-.558-1.82-.753-2.786-.48-2.376-.639-2.346-12.783 2.417-52.125 20.443-81.75 40.015-87.702 57.944-3.509 10.567-2.564 16.475 2.827 17.683 7.31 1.637 12.164 3.427 18.187 6.709 10.34 5.634 15.128 6.296 23.99 3.321m-1.289-24.628c.637-.704 1.589-1.279 2.116-1.279.787 0 .751.23-.198 1.279-.636.703-1.588 1.278-2.116 1.278-.786 0-.75-.23.198-1.278m25.251-6.617c0-.68 7.804-6.87 8.408-6.669.396.132-1.071 1.737-3.26 3.567-3.46 2.891-5.148 3.908-5.148 3.102m-14.703-2.592c0-.613 9.04-6.895 9.402-6.533.22.22.28.493.134.606-6.942 5.388-9.536 7-9.536 5.927m27.515-8.53c.036-.638 12.476-10.332 13.89-10.824 1.7-.592.162.85-6.885 6.462-5.828 4.64-7.064 5.41-7.005 4.361m-30.072-15.163c0-.57 7.172-4.887 7.528-4.531.421.42.596.266-3.168 2.81-2.737 1.848-4.36 2.489-4.36 1.72m-43.813 10.289c11.155-10.895 41.154-27.758 70.16-39.44 11.927-4.804 12.277-5.217 1.85-2.187-15.235 4.427-27.839 9.363-41.844 16.386-5.572 2.794-10.017 4.738-9.877 4.32.314-.942 11.761-6.903 21.726-11.314 10.23-4.528 28.313-10.533 39.762-13.206 10.91-2.546 10.258-2.234 9.262-4.42-.949-2.082-1.168-2.083-12.722-.06-17.988 3.152-37.648 8.217-53.042 13.666-7.336 2.597-9.774 3.17-8.598 2.02 2.98-2.915 42.59-13.69 62.295-16.948 3.34-.552 7.04-1.165 8.222-1.362l2.15-.36-1.51-1.63c-3.772-4.076-35.423 1.56-58.244 10.37-.616.238-1.119.143-1.119-.21 0-2.756 33.656-11.17 50.645-12.66 5.728-.502 5.723-.668-.127-4.085l-4.395-2.567h-12.22c-42.789 0-73.037 14.263-85.966 40.535-7.425 15.088-6.274 21.742 4.437 25.648 5.43 1.98 10.532 4.969 10.583 6.199.019.447.942-.338 2.053-1.744s4.044-4.534 6.519-6.951m4.819-12.838c0-.573 9.056-5.568 9.425-5.2.477.478.59.393-4.186 3.159-3.75 2.171-5.24 2.751-5.24 2.041m26.848-21.736c0-.59 5.824-3.685 6.209-3.3.471.47.519.43-2.57 2.199-2.328 1.334-3.639 1.73-3.639 1.101m340.083 29.414c0-.156-2.553-2.033-5.673-4.17-8.06-5.52-19.097-15.21-27.596-24.23l-7.305-7.75-1.863 3.674c-4.437 8.753-4.947 16.707-1.192 18.602 5.01 2.528 5.273 2.479 5.284-.98.01-2.865.81-5.354 1.498-4.66.165.166.075 1.52-.198 3.01-.814 4.444-.286 5.644 3.065 6.977 1.634.65 3.167 1.27 3.407 1.38.24.108.274-1.937.077-4.545-.242-3.2-.123-4.887.366-5.19.505-.312.747.676.8 3.266.11 5.41.671 7.327 2.322 7.936 1.356.5 1.438.368 1.438-2.325 0-1.57.288-2.856.64-2.856.35 0 .638 1.29.638 2.868 0 3.427.483 3.705 10.907 6.294 11.962 2.972 13.385 3.259 13.385 2.7zm-224.005-5.869c10.012-3.49 14.967-3.472 22.96.08l5.753 2.558 9.909-.232c5.45-.127 13.432-.27 17.74-.32 4.306-.048 7.83-.32 7.83-.603 0-1.487-20.476-30.913-22.291-32.035-.37-.228.61 2.112 2.176 5.2 2.33 4.596 4.328 9.863 7.04 18.56.138.44.02.8-.26.8s-1.43-2.786-2.555-6.192c-2.487-7.528-7.327-17.295-11.72-23.65-3.971-5.744-4.998-6.548-2.783-2.177 3.473 6.853 6.387 17.316 4.823 17.316-.352 0-.642-.647-.645-1.438-.01-2.367-4.045-13.343-6.558-17.836-10.02-17.919-36.044-21.775-61.341-9.09-4.606 2.308-5.274 2.524-4.641 1.5 1.423-2.302 15.927-7.787 23.918-9.044 7.17-1.128 5.726-1.895-2.716-1.442-10.567.567-18.294 3.026-32.559 10.361-.263.136-.479-.06-.479-.436 0-.801 5.867-3.868 13.105-6.85l5.114-2.107-2.877-.02c-5.366-.04-20.109 1.843-26.092 3.331l-5.955 1.482 3.875 3.37c5.178 4.505 6.905 7.608 7.815 14.044.994 7.026 1.383 7.329 10.017 7.798 11.009.599 14.07 3.24 17.67 15.246 4.634 15.448 8.214 17.233 23.727 11.826m39.254-10.18c0-.685-.185-2.325-.403-3.643-.244-1.475-.143-2.397.262-2.397.817 0 1.414 5.847.682 6.68-.311.354-.537.087-.541-.64m-82.457-31.3c0-.406 3.973-2.862 4.635-2.865 1.227-.006.26 1.144-1.78 2.117-2.414 1.15-2.855 1.266-2.855.748m262.288 36.398c-1.864-3.718-3.39-7.15-3.39-7.628 0-.925-.831-1.275-4.634-1.95-3.536-.626-3.033-1.8.54-1.265l2.939.44-.456-2.125c-.599-2.794-.305-2.619-5.937-3.52l-4.917-.787 4.908.142 4.908.141-.363-1.928c-.828-4.385-3.07-5.272-11.75-4.651-2.429.173-4.415.08-4.415-.21 0-.924 4.481-1.404 9.751-1.043l5.119.351-.367-3.56c-.433-4.191-.727-4.433-6.109-5.009-7.22-.773-21.819 1.157-21.819 2.885 0 2.875 36.128 36.478 39.22 36.478.088 0-1.364-3.042-3.228-6.76m-43.382-9.7c.618-5.313 2.103-10.223 4.255-14.077l1.882-3.369-3.688-4.78-3.689-4.782-.813 2.717c-.447 1.494-.993 4.811-1.214 7.372s-.646 4.807-.945 4.992c-.936.579-.565-5.577.677-11.221l1.19-5.41-2.61-3.7c-1.435-2.035-2.83-3.7-3.098-3.7-.997 0-3.06 9.502-3.08 14.186-.01 2-.303 3.816-.654 4.033-1.568.969-.335-11.096 1.746-17.08 1.022-2.94.42-6.253-1.136-6.253-.805 0-3.048 5.998-3.227 8.63-.207 3.036-.572 3.923-1.198 2.91-.737-1.191.452-7.058 2.108-10.405l1.527-3.085-1.853-2.923c-1.02-1.607-3.293-5.791-5.052-9.297-3.636-7.245-3.279-7.125-7.26-2.45-6.331 7.434-9.947 17.978-9.947 29.006v6.428l3.962 3.677c4.682 4.347 4.484 4.373 3.351-.442-1.043-4.438-1.245-15.656-.281-15.656.378 0 .639 2.337.639 5.735 0 14.736 2.74 18.34 22.889 30.1 5.357 3.126 5.012 3.199 5.519-1.156m10.632-23.782c5.903-1.635 13.884-2.205 19.427-1.385 2.448.362 4.475.599 4.505.527.029-.072-.104-4.584-.296-10.027l-.349-9.897-4.904-3.847c-2.697-2.117-4.926-4.064-4.954-4.327-.114-1.084 1.332-.297 5.638 3.073l4.54 3.552.108-2.434c.289-6.537.454-6.105-3.304-8.646-14.125-9.551-31.142-14.113-47.037-12.609-7.627.722-7.2.054-4.197 6.55l2.523 5.462 3.1.398c12.047 1.547 19.431 3.593 28.642 7.937 6.072 2.865 7.973 4.168 7.202 4.939-.169.168-1.708-.511-3.42-1.51-10.287-6-34.118-12.687-34.118-9.573 0 2.02 1.765 2.827 8.438 3.858 3.762.582 9.227 1.895 12.146 2.92 7.224 2.536 7.543 2.68 7.543 3.411 0 .352-.503.44-1.119.198-7.191-2.84-19.676-6.088-23.4-6.088-1.581 0-1.227.829 3.622 8.47l3.955 6.233h3.006c3.907 0 9.461 1.2 9.461 2.045 0 .381-.609.487-1.438.25-.791-.227-3.44-.595-5.888-.818l-4.45-.407 2.483 3.46c5.014 6.99 7.02 9.533 7.52 9.533.281 0 2.538-.561 5.015-1.248m1.872-8.801c-2.34-.42-3.151-1.457-1.139-1.457 2.073 0 3.696.591 3.696 1.347 0 .314-.215.531-.48.484-.263-.048-1.198-.217-2.077-.374m-49.627-8.489c1.492-5.993 6.242-15.041 10.258-19.538l3.461-3.877-1.091-2.474-1.092-2.474-2.8 2.515c-3.963 3.562-9.841 11.687-12.487 17.263-2.292 4.83-4.375 6.767-2.532 2.354 2.971-7.11 8.445-15.046 13.903-20.158l3.263-3.056-1.763-5.414c-.97-2.978-1.993-5.414-2.274-5.414-1.221 0-11.258 11.353-14.553 16.46-4.31 6.682-3.95 6.211-4.398 5.763-1.171-1.17 7.497-13.255 14.254-19.872 4.318-4.228 5.668-7.465 3.113-7.465-1.002 0-10.048 8.996-13.66 13.584-2.594 3.297-3.982 4.436-3.982 3.268 0-.92 7.514-9.5 12.374-14.131l5.205-4.958-1.065-5.114c-.585-2.813-1.089-6.032-1.118-7.154-.082-3.118-.987-3.09-5.328.17-5.462 4.1-11.979 11.048-16.29 17.371-3.619 5.305-5.6 7.061-3.607 3.197 3.195-6.194 14.857-18.893 21.495-23.407 3.07-2.088 3.487-2.86 2.44-4.514-.905-1.429-6.9 2.974-14.893 10.936-3.773 3.759-7.024 6.569-7.224 6.245-.6-.97 12.447-13.548 17.511-16.88l4.707-3.098-.441-3.895c-.547-4.833-.213-4.632-4.274-2.58-12.291 6.214-21.442 15.511-27.248 27.686-5.477 11.484-5.452 12.14.98 25.808 3.381 7.185 3.486 7.258 4.532 3.175 1.03-4.015 3.697-9.728 4.543-9.728.893 0 .844.415-.249 2.1-1.162 1.795-4.196 10.82-4.196 12.486 0 1.514 6.264 11.182 12.078 18.64l4.223 5.417.193-3.34c.277-4.785 1.405-4.132 1.405.813 0 3.901.146 4.315 2.397 6.811l2.397 2.658.4-6.012c.22-3.307.864-7.882 1.433-10.167m-15.323-10.607c.215-.56.565-1.71.777-2.557.361-1.438 1.526-2.198 1.526-.995 0 1.31-1.462 4.57-2.048 4.57-.355 0-.47-.458-.255-1.018m84.637-26.283c-1.5-1.527-3.804-3.524-5.122-4.438s-2.232-1.927-2.03-2.252c.402-.651 3.671 1.59 7.529 5.162 2.346 2.172 2.462 2.211 2.086.702-.218-.879-.401-2.558-.406-3.731-.01-2.521-4.475-7.264-11.024-11.712-2.176-1.477-3.617-2.8-3.202-2.938.98-.326 6.676 3.515 10.541 7.109 3.262 3.032 3.403 2.895 2.343-2.28-1.996-9.745-2.922-11.723-7.151-15.275-15.27-12.825-33.41-20.119-54.684-21.988l-4.675-.41.2 2.363.202 2.365 5.433 1.406c7.666 1.984 12.146 3.545 12.146 4.23 0 .815-.687.742-3.915-.413-1.538-.55-5.314-1.68-8.39-2.51l-5.594-1.51v6.734l4.635.827c9.005 1.608 28.606 8.223 28.606 9.654 0 .816.222.877-6.804-1.899-8.856-3.5-21.67-7.099-25.272-7.099-1.393 0-1.399.47-.126 9.945l.348 2.593 7.19.72c7.386.737 18.766 3.07 19.827 4.062 1.207 1.129-.08 1.101-4.392-.094-11.274-3.126-22.709-3.96-22.262-1.622.341 1.784 1.028 2.028 6.24 2.216 4.69.17 14.643 2.135 19.793 3.906 5.268 1.813 12.49 5.2 12.49 5.857 0 .756.019.761-4.546-1.295-9.132-4.112-19.37-6.713-28.855-7.33-4.894-.318-4.716-.603-3.322 5.311 1.148 4.873 1.435 5.114 6.087 5.127 10.908.03 42.782 9.683 42.782 12.956 0 .338-.36.464-.8.279-.439-.185-3.531-1.54-6.871-3.011-12.85-5.66-39.634-11.67-39.634-8.893 0 .738 3.844 12.365 4.367 13.21.37.595 1.41.635 4.293.163 16.023-2.624 36.948 2.305 51.43 12.113l2.877 1.948.178-8.74.179-8.741zm-8.66 8.622c-.79-.382-1.438-.937-1.438-1.235 0-.923 1.523-.572 3.196.737 1.76 1.376.691 1.679-1.758.498m-12.145-14.703c-.792-.381-1.439-.937-1.439-1.235 0-.923 1.524-.572 3.197.737 1.76 1.376.69 1.68-1.758.498m-6.073-18.759c-2.514-1.309-3.985-2.835-2.731-2.835.818 0 7.365 3.528 7.365 3.97 0 .868-1.484.505-4.634-1.135m-72.77 8.12c6.724-11.39 17.31-21.085 28.022-25.66l3.356-1.433v-5.675c0-3.121-.153-5.675-.34-5.675-.798 0-7.35 3.602-11.486 6.314-4.254 2.789-15.82 13.63-18.773 17.596-1.607 2.159-2.648 1.782-1.197-.434 4.328-6.604 15.933-16.56 26.043-22.34l6.073-3.471.195-3.37.195-3.369-5.635 2.971c-5.848 3.084-12.831 8.002-19.007 13.386-4.725 4.12-5.245 3.41-.689-.938 5.076-4.844 12.236-9.88 19.395-13.643l6.185-3.25.192-3.334.193-3.334-4.985 2.271c-5.224 2.38-12.418 6.899-16.016 10.058-2.344 2.057-3.63 1.841-1.704-.286 2.077-2.295 11.319-8.122 17.277-10.894 3.125-1.453 5.762-2.708 5.86-2.787.284-.233 1.958-10.212 1.748-10.43-.447-.464-8.669 3.758-12.64 6.492-4.52 3.113-4.948 3.323-4.948 2.429 0-.973 7.533-5.864 12.948-8.408l5.271-2.476 1.831-6.784c2.255-8.355 2.519-8.195-4.395-2.677-35.051 27.973-48.094 57.518-39.253 88.92l.705 2.504 1.778-4.422c.978-2.433 2.689-5.965 3.802-7.85m.064-33.808c.01-.264 1-1.63 2.213-3.036 2.57-2.983 3.04-1.908.578 1.32-1.565 2.052-2.813 2.82-2.791 1.716m-105.487 36.007c16.728-3.567 32.058-13.25 52.654-33.261 6.04-5.868 6.21-5.584-2.577-4.313l-7.136 1.032-1.077 2.265c-2.11 4.44-10.74 15.384-11.517 14.607-.227-.228 1.554-2.864 3.957-5.858 2.404-2.994 5.027-6.613 5.829-8.041l1.457-2.598-2.416.006c-7.65.018-8.748.478-11.021 4.613-3.977 7.234-14.017 19.319-15.128 18.208-.233-.232 1.44-2.397 3.716-4.81 3.67-3.89 10.79-13.798 11.792-16.41.302-.79-.257-.964-3.054-.952l-3.425.016-3.808 5.898c-3.973 6.15-17.244 20.28-19.048 20.28-.524 0 2.549-3.524 6.829-7.83 6.449-6.49 10.428-11.475 14.033-17.58.354-.6-.404-.8-3.033-.8h-3.504l-3.016 4.538c-5.55 8.349-16.277 18.631-24.404 23.394-4.685 2.746-3.757 1.14 1.323-2.288 12.928-8.723 27.797-26.282 22.257-26.282-1.003 0-3.52-.166-5.594-.367l-3.77-.367-2.518 4.288c-6.995 11.91-20.899 22.306-35.457 26.512l-5.18 1.498 2.08.886c10.896 4.64 28.779 6.27 40.756 3.716m3.196-5.994c0-.282 1.295-1.141 2.877-1.91 3.54-1.72 3.863-.665.345 1.13-2.8 1.429-3.222 1.53-3.222.78m-42.19-2.123c13.711-3.55 26.853-13.208 34.652-25.468l2.37-3.726-4.22-.796-4.22-.796-2.261 2.806c-3.637 4.513-10.968 11.283-15.454 14.272-6.53 4.35-5.768 2.697 1.121-2.431 5.415-4.031 14.86-13.269 14.86-14.533 0-2.473-3.492-.923-7.505 3.33-7.415 7.86-25.736 20.122-25.736 17.224 0-.334 2.363-1.836 5.25-3.339 8.001-4.162 24.24-17.417 22.841-18.642-.411-.36-13.887-4.261-14.721-4.261-.387 0-2.475 1.608-4.64 3.574-4.535 4.119-15.785 11.83-16.56 11.35-.288-.178 1.86-1.914 4.772-3.858 6.456-4.31 15.083-11.465 14.458-11.992-2.122-1.79-3.29-1.698-5.558.44-5.647 5.322-15.244 11.495-21.06 13.547-4.259 1.502-3.112.168 1.819-2.116 5.474-2.537 14.867-8.759 17.753-11.761l2.116-2.202-4.9-2.326c-6.026-2.863-4.996-2.981-10.214 1.177-7.163 5.708-22.68 13.012-22.68 10.676 0-.287 1.616-1.031 3.59-1.654 6.848-2.158 21.98-11.315 21.98-13.3 0-.288-.876-1.057-1.948-1.709l-1.95-1.185-4.705 3.134c-9.115 6.07-18.443 8.607-29.566 8.04-7.462-.382-7.499-.354-4.033 3.03 2.272 2.218 2.959 2.515 6.393 2.764 4.72.341 5.107 1.403.511 1.403h-3.336l3.815 3.897c2.099 2.143 6.785 6.354 10.414 9.357l6.597 5.46 4.017-.375c2.21-.206 5.57-.965 7.466-1.686 3.851-1.463 4.408-1.558 4.408-.752 0 .566-6.558 2.764-11.12 3.726l-2.489.525 3.768 2.505c7.105 4.724 15.468 8.717 17.372 8.296.956-.211 3.896-.943 6.533-1.625m-32.602-20.876c0-.706 4.392-1.717 4.966-1.142.565.565.013.851-2.57 1.334-1.47.274-2.396.2-2.396-.192m271.372 9.766-1.978-4.576c-5.13-11.881-20.069-33.05-34.333-48.65-6.37-6.966-14.737-15.493-15.202-15.493-.705 0-2.813 7.89-2.17 8.12 2.638.945 18.73 12.734 18.802 13.774.078 1.134-1.552.27-5.161-2.732-3.194-2.658-10.627-7.938-13.794-9.8-.774-.454-1.54 1.643-2.443 6.69l-.413 2.307 3.091.776c5.53 1.387 16.575 7.074 13.741 7.074-.336 0-2.217-.844-4.18-1.877-3.73-1.962-12.309-4.963-12.796-4.476-2.367 2.368-1.122 3.547 5.488 5.2 10.163 2.54 28.995 12.46 27.684 14.582-.198.32-2.292-.818-4.654-2.53-7.483-5.428-19.148-10.47-27.346-11.821l-2.597-.428-.759 5.702c-1.245 9.347-1.407 8.876 3.236 9.384 9.434 1.032 23.493 5.123 23.493 6.835 0 .38-.476.464-1.119.199-7.963-3.293-16.271-5.355-22.534-5.59l-4.155-.157-.188 3.576-.19 3.576 6.902.42c17.287 1.054 35.629 8.114 50.672 19.504 4.22 3.195 4.099 3.178 2.903.411m-27.657-18.65c-2.106-1.469-1.755-2.322.48-1.166 1.055.545 1.918 1.272 1.918 1.614 0 .862-.71.73-2.398-.447m10.388-4.043c-1.373-1.406-2.143-2.557-1.71-2.557.91 0 5.226 3.78 5.226 4.577 0 1.093-1.084.47-3.516-2.02m-164.16-4.315c-.221-4.84-.908-10.31-1.69-13.465-1.482-5.99-1.604-7.057-.703-6.156 1.336 1.336 3.285 11.776 3.663 19.621l.393 8.15h7.255c8.442 0 7.85.81 6.313-8.63-1.414-8.686-5.338-19.003-9.437-24.807-1.234-1.748-1.206-2.88.051-2.103 3.466 2.142 10.125 20.65 11.29 31.381.492 4.536.356 4.334 2.55 3.784 2.145-.539 1.965-3.473-.686-11.173-2.174-6.314-2.58-8.167-1.583-7.233 1.159 1.086 4.392 10.903 4.882 14.82l.432 3.463 2.315-.383c1.273-.21 3.034-.39 3.913-.4 4.125-.043 3.266-2.883-4.69-15.491-1.938-3.072-3.285-5.733-2.994-5.913.67-.415 6.443 8.55 9.867 15.325l2.612 5.167 3.516-.561c5.103-.815 5.09-.974-.699-7.88-18.94-22.601-37.777-40.063-53.407-49.508-6.083-3.676-7.283-3.926-5.11-1.066 8.496 11.188 14.77 33.037 14.776 51.46v9.748h7.544zm-5.46-24.801c-.407-.896-.741-1.903-.741-2.238 0-1.053 1.114-.661 1.451.51.177.615.529 1.622.782 2.237.731 1.776-.668 1.298-1.491-.51m5.12-9.841c-1.114-1.386-2.014-2.896-1.999-3.356.034-1.085 4.448 3.9 4.448 5.023 0 1.255-.225 1.101-2.45-1.667m-9.3 40.473c2.455-9.78-2.427-34.711-9.575-48.894-7.375-14.634-7.988-15.236-19.538-19.178-6.394-2.182-6.614-2.095-3.705 1.477 2.272 2.79 6.212 9.613 6.212 10.757 0 1.556-1.14.266-3.293-3.724-4.175-7.738-7.005-10.766-10.831-11.586-4.108-.881-4.17-.817-1.892 1.947 2.153 2.611 4.815 7.503 4.34 7.977-.179.18-1.628-1.631-3.22-4.023-4.704-7.072-8.153-8.505-20.468-8.505h-2.225l2.421 4.954c7.86 16.08 9.999 39.79 4.808 53.297-.414 1.077 10.44 6.953 12.845 6.953 2.982 0 .052-26.7-4.453-40.564-2.05-6.311-2.414-8.322-1.303-7.212 2.991 2.992 7.334 24.255 7.76 37.999l.342 10.998 4.663 1.568 4.664 1.568.446-4.165c.791-7.393-.957-20.383-3.913-29.074-1.695-4.984-1.817-5.638-1.05-5.638 2.212 0 5.999 18.564 6.112 29.972.09 8.96.13 9.21 1.555 9.737 1.097.406 1.56.286 1.854-.479.532-1.385-.306-18.965-1.09-22.875-.6-2.996-.452-4.245.405-3.388.788.788 2.135 13.737 2.148 20.655l.014 7.093 4.813 1.058c7.934 1.743 7.59 1.948 7.083-4.216-.526-6.4-3.07-19.27-4.8-24.279-.744-2.155-1.015-3.815-.66-4.035.333-.206.731.004.885.466 2.811 8.423 5.247 20.156 5.872 28.287.445 5.801.733 6.113 5.642 6.113h1.414l-.872-5.913c-.48-3.252-1.15-6.92-1.491-8.15-.797-2.882-.814-4.925-.036-4.124.669.69 2.333 8.444 2.942 13.712.57 4.93.672 5.114 2.829 5.114 1.546 0 2.008-.331 2.347-1.68m-22.778-40.531c-1.677-4.485-1.238-5.976.538-1.828 1.78 4.156 2.185 5.684 1.508 5.684-.332 0-1.253-1.735-2.046-3.856m-17.789-7.361c-.408-.896-.742-1.902-.742-2.237 0-1.053 1.115-.662 1.451.509.177.615.53 1.622.783 2.237.73 1.776-.669 1.298-1.492-.51m-13.424-14.064c-.885-1.94-.91-2.207-.205-2.207.464 0 2.02 2.73 2.02 3.546 0 .92-1.184.047-1.815-1.339m-31.455 54.617c6.192-1.378 18.57-7.635 18.566-9.383 0-.25-1.507-1.463-3.346-2.693s-5.726-3.922-8.635-5.98l-5.29-3.743-2.647 1.059c-3.224 1.29-10.427 2.057-10.976 1.168-.236-.381 1.324-.776 3.928-.994 6.673-.56 8.87-1.841 6.63-3.868-1.055-.955-1.559-.965-5.594-.11-4.824 1.022-13.259 1.2-15.3.322-1.602-.688-1.144-.75 4.844-.647 2.665.046 6.798-.257 9.185-.673l4.34-.755-3.751-3.397c-2.935-2.657-4.1-3.332-5.35-3.101-3.919.724-14.539 1.045-14.906.45-.245-.396 2.276-.786 6.715-1.04 8.793-.503 8.622-.27 3.771-5.165l-4.028-4.065-3.607 1.464c-5.041 2.046-11.02 3.104-15.134 2.68-1.922-.2-3.495-.143-3.495.123 0 1.008 9.586 19.727 12.01 23.454 3.144 4.832 10.182 7.873 18.355 7.931 3.049.022 5.526.613 5.146 1.228-.458.74-10.438-.485-14.93-1.832-2.32-.697-4.303-1.184-4.404-1.082-.555.555 5.916 8.145 7.226 8.474 6.03 1.513 14.352 1.584 20.677.175m27.846-15.72c2.928-14.124.107-32.485-7.108-46.258l-2.49-4.754-4.08-.503c-5.211-.642-5.175-.74-1.662 4.542 1.639 2.465 2.88 4.994 2.76 5.62-.148.772-1.003-.2-2.647-3.012-4.462-7.63-4.163-7.436-13.23-8.57-4.395-.549-8.71-1.152-9.588-1.34l-1.599-.34-.043 6.595c-.047 7.197-1.15 12.421-3.933 18.622l-1.705 3.8 2.521 2.256a423 423 0 0 1 5.824 5.352c4.226 3.962 4.049 4.08 4.049-2.696 0-3.697.23-5.648.64-5.396.354.22.638 3.154.638 6.603v6.208l6.326 4.942c3.48 2.717 6.5 4.941 6.712 4.941 1.482 0-.586-16.184-3.206-25.09-.18-.616-.044-1.12.304-1.12 1.394 0 3.796 11.39 4.446 21.086.402 5.991.577 6.661 1.982 7.592l1.541 1.021-.4-8.297c-.497-10.34-2.42-18.37-7.153-29.872-.26-.632-.179-1.118.188-1.118 2.61 0 7.73 19.555 8.248 31.51l.382 8.815 5.161 3.177c5.943 3.656 5.401 3.984 7.122-4.316m-33.809-30.404c-.558-2.08-.485-3.668.168-3.668.685 0 1.29 4.436.659 4.826-.244.15-.616-.37-.827-1.158m-21.976 3.393c4.507-1.716 4.54-1.273-.522-7.061-9.06-10.36-19.879-25.913-24.852-35.727-.946-1.867-1.844-3.27-1.996-3.119-.455.455.986 13.194 2.152 19.029l1.086 5.434 2.717.57c3.538.742 3.595 1.928.064 1.331-2.33-.393-2.602-.316-2.237.635.229.596.416 1.31.416 1.588 0 .568 4.442 1.84 7.351 2.105 1.055.095 1.985.448 2.068.783.171.695-4.047.507-6.882-.306-2.202-.631-2.205-.62-.925 3.688 1.044 3.516 3.941 4.82 8.288 3.728.883-.221 1.606-.133 1.606.198 0 .924-3.453 1.47-6.122.97-2-.375-2.332-.287-2.017.534.207.54.74 2.193 1.183 3.672.473 1.58 1.348 2.926 2.123 3.264 2.34 1.021 12.488.212 16.5-1.316zm11.737-8.008c3.507-11.03 2.965-19.635-1.305-20.71-4.857-1.223-4.666-1.454-4.941 5.979-.153 4.12-.55 6.997-1.031 7.479-.995.995-1.002.579-.083-5.34.994-6.412.38-9.87-1.85-10.402a67 67 0 0 1-2.896-.76c-1.007-.3-1.146-.008-1.007 2.108.276 4.195-.033 7.25-.733 7.25-.437 0-.53-1.278-.267-3.675.504-4.596-.181-6.46-2.778-7.552l-2.037-.856v3.165c0 1.741-.288 3.165-.64 3.165-.351 0-.639-1.578-.639-3.506v-3.507l-3.995-1.996c-2.198-1.098-5.498-3.12-7.334-4.492-4.003-2.991-3.904-2.57 1.51 6.47 4.961 8.285 13.401 19.558 21.006 28.058 6.65 7.433 6.368 7.46 9.02-.878m395.469 342.449c-2.696-1.036-3.58-2.058-1.78-2.058 1.298 0 5.455 2.039 5.455 2.675 0 .694-.47.615-3.675-.617m-98.605-.14c0-.352 1.133-.64 2.519-.64s2.697.288 2.914.64c.242.39-.739.639-2.519.639-1.603 0-2.914-.288-2.914-.64m-10.868-1.637c-6.436-1.388-15.342-4.25-15.342-4.931 0-.337.504-.469 1.119-.292s3.644 1.066 6.73 1.977c3.086.91 7.544 1.982 9.908 2.382 4.583.776 6.828 1.897 3.626 1.81-1.037-.027-3.755-.453-6.04-.946m97.487-3.25c-23.965-9.857-55.847-16.855-84.222-18.487-4.213-.242-7.511-.709-7.511-1.062 0-1.306 26.153 1.08 40.912 3.731 18.16 3.262 56.254 14.772 56.254 16.997 0 .803-1.3.521-5.433-1.18m-40.388-5.883c-4.01-1.073-5.787-2.016-3.799-2.016 2.016 0 9.347 2.067 9.347 2.635 0 .738-.82.646-5.548-.619m-16.506-4.023c-4.119-.967-22.314-3.58-31.323-4.497-5.22-.532-16.808-.847-31.164-.847-12.57 0-22.853-.175-22.853-.388 0-1.486 32.944-1.64 50.29-.235 16.41 1.33 40.484 4.976 40.484 6.132 0 .693-2.047.63-5.434-.165m85.02-6.76c-10.547-3.68-27.807-9.66-38.354-13.29-65.287-22.46-59.433-20.451-106.756-36.636a40707 40707 0 0 1-31.547-10.799c-10.512-3.61-10.817-5.058-1.795-8.549 60.144-23.269 128.3-20.076 185.165 8.674 13.862 7.009 13.413 6.682 13.419 9.77l.01 2.73-3.356-1.984c-47.617-28.145-108.271-37.123-163.49-24.2-8.694 2.035-26.848 7.602-26.848 8.233 0 .216 4.243.732 9.429 1.147 35.559 2.845 76.83 10.744 113.308 21.684 29.042 8.71 70.378 25.266 70.854 28.379.15.987-.043 1.304-.64 1.048-.47-.202-4.45-1.995-8.846-3.983-45.424-20.556-99.154-35.598-150.544-42.148-9.344-1.191-25.636-2.918-27.077-2.87-.578.019 8.443 3.3 20.045 7.292l62.327 21.439c11.427 3.93 33.721 11.6 49.543 17.047a41460 41460 0 0 0 42.03 14.445l13.265 4.544v2.439c0 1.34-.216 2.402-.48 2.358-.263-.043-9.109-3.09-19.656-6.77zm8.311-6.99c-19.364-5.77-54.535-17.964-56.222-19.491-1.328-1.202 1.65-.426 9.273 2.416 10.785 4.02 37.165 12.806 48.707 16.22 5.186 1.534 9.43 3.022 9.43 3.308 0 .807-.94.6-11.188-2.453m-549.216-18.563c-2.28-3.606-8.527-10.82-11.844-13.675-1.87-1.61-6.422-5.445-10.114-8.523-13.662-11.39-20.495-19.068-25.08-28.183-11.325-22.52-7.035-53.387 9.966-71.683 5.77-6.21 10.021-6.68 19.902-2.2 22.204 10.067 31.165 35.751 25.332 72.605-.78 4.922-2.03 12.833-2.78 17.58-1.05 6.649-1.376 11.71-1.422 22.054-.06 13.248-.078 13.426-1.442 13.623-.948.136-1.738-.366-2.518-1.598m-7.38-23.94-4.03-11.738-.568 4.635c-.312 2.549-.852 4.634-1.2 4.634-.372 0-.478-.99-.257-2.397 1.301-8.316 1.169-10.518-1.065-17.71-1.464-4.714-2.298-6.593-2.553-5.753-.62 2.047-2.347 13.548-2.347 15.625 0 1.059-.311 1.925-.69 1.925-.835 0-.33-5.69 1.346-15.158l1.155-6.527-4.345-17.445-4.346-17.444-1.276 4.155c-.702 2.286-2.65 9.046-4.33 15.023-2.82 10.037-4.135 13.57-4.135 11.112 0-.533 2.014-7.918 4.475-16.41 5.166-17.83 4.949-15.746 2.81-26.92-2.2-11.498-1.94-10.907-3.808-8.667-1.789 2.146-7.781 10.996-8.164 12.058-.139.385-.472.495-.741.245-.598-.556 4.699-9.173 7.943-12.922 2.001-2.312 2.323-3.09 2.092-5.065-.35-3.006-.514-2.951-4.129 1.378-11.597 13.893-16.5 37.776-11.247 54.78l1.382 4.474 1.17-7.032c1.309-7.862 4.095-17.579 5.041-17.579.802 0 .83-.167-.691 4.215-3.946 11.368-4.977 22.265-2.556 27.01 3.366 6.597 3.565 6.676 4.485 1.8.442-2.342 1.06-4.259 1.371-4.259.718 0 .739-.26-.402 5.16l-.968 4.603 1.7 2.23c2.82 3.696 7.775 8.378 17.512 16.545 5.09 4.269 10.548 9.037 12.13 10.596 3.796 3.74 3.836 4.223-.764-9.176m-24.166-20.295c0-2.113 1.968-10.528 2.625-11.228.785-.835.733-.292-.59 6.179-1.13 5.528-2.035 7.774-2.035 5.05m3.835-15.963c0-1.46 1.442-6.792 2.005-7.41.756-.832.704.374-.174 4-.714 2.95-1.83 5.03-1.83 3.41m-9.244-29.976c1.077-2.58 2.212-4.08 2.212-2.923 0 1.314-1.938 5.32-2.574 5.32-.362 0-.205-1.04.362-2.397m-8.655-2.695c0-1.055 2.126-5.136 2.675-5.136.761 0 .662.415-.77 3.222q-1.907 3.736-1.905 1.914m43.777 65.69c-1.856-2.205-1.623-3.236.332-1.467 1.646 1.49 1.51 1.816 2.658-6.393l.983-7.031-3.898-3.67c-2.144-2.017-4.114-3.671-4.378-3.675s-.48-.294-.48-.646c0-1.242 1.103-.601 4.938 2.87 3.632 3.286 3.9 3.417 4.227 2.077.397-1.619 2.075-13.65 2.664-19.085l.388-3.591-4.03-3.49c-2.217-1.92-5.118-4.3-6.446-5.288-1.328-.99-2.263-1.95-2.078-2.135.487-.487 6.69 3.907 9.262 6.562 3.038 3.134 3.222 2.962 3.219-3.01-.012-24.93-13.33-44.378-32.44-47.374-3.254-.51-3.24-.589-1.477 8.519.944 4.873 1.46 6.243 2.653 7.031 5.655 3.74 26.725 19.985 26.763 20.636.062 1.054-1.183.287-6.69-4.121-10.775-8.626-20.436-15.339-20.645-14.345-.217 1.033 2.053 12.143 5.095 24.938 2.242 9.432 1.162 7.91 13.16 18.54 6.708 5.944 8.708 8.07 7.591 8.07-.131 0-4.087-3.424-8.79-7.608-4.703-4.185-8.645-7.519-8.76-7.409s1.001 4.665 2.48 10.122l2.69 9.922 5.67 4.234c4.978 3.717 6.645 5.442 5.26 5.442-.226 0-1.88-1.228-3.676-2.727-4.913-4.103-5.503-4.518-5.884-4.137-.43.431 1.789 7.668 6.614 21.566l3.663 10.548.5-5.964c.488-5.811.459-6.013-1.138-7.91m-8.68-25.193c-.74-.894-.694-1.001.349-.8.663.13 1.325.594 1.471 1.033.38 1.14-.805.989-1.82-.233m-1.856-29.436c-1.23-.862-2.666-1.817-3.19-2.122-.525-.305-.756-.753-.514-.995.494-.494 4.406 1.755 5.641 3.244 1.326 1.597.441 1.54-1.937-.127m5.666-19.805c-4.242-2.883-4.043-2.703-3.552-3.194.39-.389 7.231 3.973 7.881 5.024.694 1.123-1.1.365-4.33-1.83m-8.852-5.312c-2.258-1.735-1.126-2.374 1.232-.695 1.075.765 1.954 1.516 1.954 1.668 0 .673-1.733.143-3.187-.973m566.146 95.47c-25.643-12.959-53.81-22.34-83.403-27.776-3.693-.679-6.86-1.38-7.037-1.557-2.788-2.788 30.876 4.86 50.936 11.572 18.06 6.043 49.955 20.16 49.955 22.112 0 .87-.674.589-10.451-4.352m-85.437.28c-2.415-.681-4.035-1.81-2.599-1.81 1.565 0 5.796 1.474 5.796 2.02 0 .636-.262.62-3.197-.21m81.715-9.077c-13.853-7.122-15.506-8.074-14.006-8.074.895 0 25.283 12.248 27.245 13.682 3.647 2.667-.84.767-13.24-5.608m-91.943 6.18c-14.088-5.106-22.62-8.866-22.083-9.733.2-.325 3.022.641 6.27 2.148 3.248 1.506 8.638 3.689 11.978 4.85 6.229 2.167 8.265 3.223 6.04 3.133-.685-.028-1.678-.207-2.205-.398m62.647-3.549c-5.465-2.247-5.472-2.25-4.912-2.81.53-.53 11.305 3.609 11.305 4.342 0 .876-1.286.568-6.393-1.532m-23.395-8.802c-27.491-8.79-59.793-15.085-87.036-16.96-3.604-.247-6.552-.7-6.552-1.007 0-1.836 32.135 1.994 54.336 6.477 17.9 3.614 49.143 12.382 50.197 14.086.61.987-.744.665-10.945-2.596M1085.4 316.964c-27.49-5.967-38.072-46.416-21.066-80.524 3.722-7.466 7.153-11.221 19.4-21.238l2.519-2.06-4.475 1.675c-2.461.92-8.62 3.212-13.686 5.091-10.967 4.069-8.428 1.41-15.392 16.121-18.221 38.49-28.678 54.464-40.083 61.232-18.95 11.245-36.482 7.543-44.612-9.42-11.51-24.017 8.779-56.077 43.161-68.203 9.179-3.237 18.944-3.248 38.65-.04 4.218.686 7.958 1.271 8.31 1.3 1.75.14 37.403-13.648 36.267-14.027-.425-.142-2.773.053-5.218.432-31.056 4.819-69.597-24.383-69.709-52.816-.075-18.92 14.25-32.422 31.545-29.733 21.53 3.347 34.045 16.9 64.618 69.974.962 1.67 1.844 3.037 1.96 3.037 1.7 0 45.37-20.6 49.232-23.224 2.888-1.962 2.87-1.967-3.588-.828-19.897 3.509-49.265-7.11-65.834-23.806-35.643-35.914-2.885-83.184 41.488-59.867 11.26 5.917 41.755 37.316 61.01 62.817 3.053 4.043 1.858 4.076 9.636-.265 13.546-7.561 21.903-12.573 23.93-14.352 1.155-1.014 2.562-1.844 3.126-1.844.905 0 17.635-9.882 20.984-12.394.703-.527-2.605.287-7.352 1.81-16.568 5.316-23.403 5.868-37.076 2.996-43.311-9.096-70.142-45.537-54.808-74.438 7.96-15.002 24.477-19.384 46.023-12.209 13.275 4.421 32.92 24.681 63.64 65.632 2.57 3.426 4.827 6.23 5.016 6.23.363 0 21.34-14.148 28.186-19.01 2.197-1.56 3.995-3.08 3.995-3.377s.648-.742 1.439-.988c1.443-.448 21.713-15.055 21.37-15.4-.102-.1-4.771.81-10.378 2.021-23.965 5.181-33.22 4.957-49.525-1.196-36.627-13.821-60.689-45.642-54.905-72.61.671-3.132.758-3.228 2.932-3.228h2.241l-.536 2.717c-2.878 14.602 6.456 40.877 15.446 43.476 6.405 1.852 26.325.485 37.556-2.576 6.892-1.88 6.97-1.94 4.471-3.432-14.606-8.724-50.761-40.185-46.18-40.185 1.124 0 3.28 1.683 7.572 5.913l6 5.913-.394-3.515c-.218-1.934-.577-4.595-.799-5.914-.248-1.475-.15-2.397.254-2.397.529 0 1.455 4.906 2.287 12.119.113.976 11.185 10.87 12.182 10.885.622.01.066-12.447-.841-18.849-.541-3.815-.449-4.763.382-3.932.684.683 1.347 6.37 1.85 15.855l.462 8.727 4.86 3.653c6.126 4.606 6.053 5.085 2.83-18.55-.236-1.728-.138-2.35.301-1.917.926.91 2.607 11.747 2.884 18.593.13 3.194.446 6.149.704 6.566.507.82 12.827 9.041 13.55 9.041s-.29-17.909-1.26-22.243c-.639-2.855-.69-3.954-.174-3.783 1.18.392 2.316 7.789 2.747 17.906l.404 9.46 5.367 3.17c6.412 3.788 13.02 7.173 13.352 6.841 1.386-1.386.49-16.291-1.584-26.373-2.281-11.085-3.564-14.246-8.378-20.649-5.281-7.024-5.146-6.525-1.753-6.497 2.69.022 2.762.084 7.275 6.232 9.514 12.96 23.701 35.14 34.131 53.36 4.128 7.21 4.787 8.055 5.683 7.29.558-.475 6.127-4.949 12.375-9.942 16.54-13.216 23.963-19.55 26.25-22.4 1.113-1.385 2.743-2.788 3.622-3.116 1.972-.736 20.853-17.2 20.327-17.725-.124-.124-3.526.778-7.56 2.004-10.451 3.177-21.177 5.796-27.41 6.691-17.15 2.465-43.182-5.614-61.735-19.16l-4.46-3.257h3.908c3.503 0 4.31.269 7.779 2.584 16.237 10.843 40.196 17.566 54.448 15.278 9.738-1.564 36.986-9.307 35.974-10.224-.273-.246-3.98-1.587-8.24-2.98l-7.745-2.53-2.803 1.413c-4.768 2.405-17.9 7.465-18.31 7.055-.666-.666.635-1.386 5.647-3.125s13.376-5.462 13.376-5.953c0-.154-.647-.54-1.439-.859-1.124-.452-.672-.584 2.078-.608 1.934-.017 3.94.237 4.458.565.62.392 1.102.336 1.413-.167.341-.552.699-.453 1.295.357.696.943 10.666 4.589 11.17 4.084.092-.092-.553-1.23-1.436-2.529L1400.4.236h2.892c2.668 0 3.014.193 4.472 2.502 2.274 3.603 2.567 3.623 6.005.407 1.81-1.692 3.72-2.91 4.567-2.91 1.374 0-6.991 9.814-9.262 10.868-1.11.515-24.61 21.84-24.61 22.333 0 .247 2.487 4.025 5.525 8.395 32.65 46.968 51.155 81.975 52.351 99.04 1.885 26.888-9.622 47.353-29.483 52.433-44.277 11.324-80.522-44.111-68.364-104.558 2.286-11.362 5.385-17.495 16.639-32.925a4587 4587 0 0 0 4.794-6.583c.528-.728-5.082 3.495-12.465 9.383-7.384 5.89-13.85 11.4-14.368 12.245-.52.847-1.635 1.712-2.479 1.924s-5.31 3.189-9.924 6.615a1852 1852 0 0 1-12.647 9.319l-4.258 3.088 8.169 12.224c32.707 48.941 42.569 69.712 42.055 88.575-.706 25.876-12.057 40.199-32.823 41.415-30.992 1.815-54.7-28.923-54.84-71.1-.08-23.793 3.047-32.978 17.979-52.8 4.062-5.394 6.787-9.385 6.055-8.868-3.383 2.384-33.288 22.27-35.132 23.361-10.14 6-22.56 13.906-22.406 14.261.106.242 3.258 6.47 7.005 13.84 25.13 49.43 30.602 67.626 26.058 86.652-10.016 41.933-60.713 34.74-72.467-10.284-7.501-28.732-1.47-54.114 17.845-75.112l3.767-4.098 2.003-2.18-4.155 2.29a777 777 0 0 0-10.228 5.787c-3.34 1.924-12.473 6.765-20.294 10.758-7.822 3.993-14.222 7.585-14.224 7.983 0 .397.75 2.699 1.67 5.114 20.735 54.464 25.628 82.202 17.683 100.232-15.424 35-58.278 27.308-68.315-12.263-7.469-29.442 1.755-60.94 23.033-78.662 6.42-5.347 6.032-5.36-4.96-.161-4.284 2.025-11.671 5.358-16.418 7.405s-9.061 4.076-9.589 4.508c-.527.431-1.965 1.06-3.196 1.396-2.591.71-12.234 4.609-12.95 5.237-.266.234.22 2.16 1.082 4.281 5.77 14.201 15.183 44.953 17.613 57.546 5.703 29.552-11.08 52.878-34.405 47.815m14.187-5.213c2.11-.743 4.516-2.343 6.72-4.466l3.434-3.308-1.472-2.125c-4.43-6.398-10.055-13.009-15.378-18.077l-6-5.711-.183 5.915-.185 5.916 3.002 3.317c2.986 3.3 6.636 8.534 6.636 9.516 0 1.282-1.112.23-2.848-2.693-1.039-1.75-2.973-4.241-4.298-5.535l-2.41-2.352.331 3.469c.927 9.713 1.674 16.346 1.933 17.142.375 1.156 6.106.617 10.718-1.008m-14.053-7.55c-1.068-8.855-1.404-30.075-.637-40.164l.527-6.922-1.947 1.007c-5.872 3.036-16.707 13.918-21.377 21.467-4.216 6.817 9.165 27.633 20.578 32.01 3.901 1.497 3.922 1.444 2.856-7.398m-17.777-13.71c1.845-3.389 7.884-10.54 8.436-9.988.183.184-1.027 1.987-2.69 4.006s-3.745 4.904-4.627 6.409c-2.236 3.816-3.223 3.44-1.12-.426m9.866-12.081c0-.848 2.517-2.91 2.983-2.443.23.23-.104.995-.742 1.7-1.206 1.333-2.241 1.676-2.241.743m34.772 20.49c1.704-3.364 3.225-8.217 4.197-13.393 1.249-6.649-2.4-25.74-5.895-30.849-6.302-9.21-18.036-20.896-19.09-19.012-.261.466-.93 3.568-1.486 6.893-.556 3.326-1.138 6.622-1.293 7.325-.211.961.758 2.133 3.901 4.719 3.925 3.228 11.38 11.518 10.843 12.055-.134.134-3.476-3.01-7.425-6.986-8.171-8.227-7.82-8.246-8.59.466l-.455 5.14 5.648 5.528c5.399 5.284 8.64 9.443 7.359 9.443-.33 0-1.405-1.08-2.39-2.398-3.44-4.605-9.993-10.579-10.584-9.647-.74 1.167-.711 8.848.032 8.848 1.239 0 14.617 13.979 18.507 19.338 4.74 6.53 4.701 6.515 6.72 2.53zm-6.197-26.662c-1.289-2.704-.25-3.026 1.134-.351 1.111 2.149 1.188 2.588.454 2.588-.286 0-1-1.007-1.588-2.237M996.861 295.25c1.128-5.466 1.964-19.557 1.518-25.57l-.38-5.114-4.21 4.347-4.21 4.348-.364 5.56c-.377 5.767-1.402 10.356-2.313 10.356-.288 0-.136-1.654.34-3.676.476-2.021.86-5.257.852-7.191l-.013-3.516-1.415 1.656c-5.034 5.889-11.324 13.934-11.324 14.484 0 3.43 10.368 8.507 16.916 8.282l3.812-.13zm7.567 1.127c10.439-4.34 18.885-13.126 25.756-26.79 2.847-5.66 4.414-31.55 1.91-31.55-.333 0-3.415 1.928-6.848 4.285l-6.243 4.285.064 10.385c.038 6.161-.196 10.646-.575 11.025q-.64.641-.64-9.182c0-11.877.198-11.633-5.544-6.859l-4.647 3.863-.078 8.876c-.045 5.134-.375 9.398-.782 10.116-.525.926-.607-1.075-.322-7.868.443-10.55.241-10.848-4.242-6.28l-2.776 2.828.101 10.436c.064 6.65-.252 12.735-.873 16.773-1.442 9.388-1.973 8.865 5.739 5.657m11.354-21.583c.378-1.23.926-2.237 1.219-2.237.734 0 .666.924-.21 2.846-1.096 2.405-1.803 1.978-1.009-.61m159.185 20.254c4.015-1.976 9.413-6.895 9.41-8.573-.01-2.837-23.728-29.9-26.206-29.9-1.654 0-.743 13.747 1.02 15.39 2.42 2.259 7.579 8.882 8.846 11.358 1.926 3.765.596 2.865-2.398-1.623-3.774-5.654-8.355-10.23-7.875-7.865.179.879.495 4.043.702 7.032s.698 7.984 1.092 11.102l.715 5.669 5.28-.277c4.29-.225 6.053-.658 9.414-2.313m-17.11 1.001c-1.89-5.543-2.957-43.405-1.617-57.324.764-7.94.883-7.735-2.98-5.115-10.307 6.989-25.136 22.876-25.136 26.93 0 6.26 6.709 20.695 12.37 26.617 5.508 5.761 18.576 12.454 17.362 8.892m-23.058-22.693c1.549-4.137 9.997-15.02 10.934-14.086.252.251-1.022 2.077-2.83 4.056-1.81 1.98-4.221 5.295-5.359 7.366-1.918 3.492-3.705 5.226-2.745 2.664m12.538-16.621c.053-.712 3.8-3.55 3.8-2.877 0 .657-2.732 3.356-3.397 3.356-.241 0-.423-.215-.403-.479m-170.335 27.808c9.009-11.512 19.125-21.97 30.782-31.824 4.607-3.893 4.723-4.177 1.918-4.696-9.035-1.671-20.08-1.667-29.154.013-8.4 1.554-14.155 25.277-9.025 37.202 1.771 4.118 1.705 4.126 5.479-.695m-3.865-23.385c1.912-1.674 15.63-3.534 15.63-2.12 0 .457-1.265.737-3.357.743-1.846.005-5.082.427-7.191.937-4.44 1.071-5.954 1.203-5.082.44m19.465-2.026c-1.426-.457-1.34-.518.799-.575 1.318-.035 2.397.224 2.397.575 0 .732-.911.732-3.196 0m195.972 20.776c5.36-11.474 5.94-21.379 2.209-37.716-2.195-9.613-2.247-9.728-7.626-16.93-5.744-7.688-17.394-19.188-19.44-19.188-.166 0-1.101 4.202-2.078 9.337l-1.775 9.336 3.787 3.254c6.69 5.748 14.277 14.143 13.491 14.928-.21.21-1.183-.589-2.162-1.775-5.11-6.198-13.378-13.985-14.847-13.985-.262 0-.827 3.23-1.255 7.175l-.779 7.175 5.029 4.596c5.359 4.899 10.841 11.493 10.139 12.196-.234.233-.9-.277-1.48-1.135-1.678-2.477-12.863-13.715-13.259-13.32-.196.197-.54 2.516-.763 5.153l-.405 4.795 8.714 8.511c7.446 7.273 15.046 16.208 18.37 21.6 1.083 1.756 1.732 1.126 4.13-4.007m-7.734-29.769c-.558-1.078-.898-2.3-.757-2.717.142-.415.884.467 1.65 1.962s1.107 2.716.757 2.716-1.092-.882-1.65-1.96m-109.645 16.616c3.36-3.366 8.012-7.337 10.34-8.824l4.231-2.705 1.085-7.061c.596-3.884.942-7.203.769-7.376-.636-.636-9.246 4.417-13.394 7.86-4.591 3.811-5.818 3.906-1.877.145 3.283-3.132 8.162-6.35 12.476-8.228 3.345-1.457 6.634-7.546 5.138-9.514-.387-.51-9.307 4.476-12.09 6.755-1.521 1.248-3.13 2.146-3.577 1.998-1.162-.388 6.476-5.837 11.641-8.305 4.02-1.921 6.682-4.89 5.47-6.101-.323-.323-7.275 3.759-10.446 6.133-1.152.863-2.271 1.392-2.487 1.176-.579-.578 1.977-2.51 8.12-6.136l5.455-3.221 1.72-5.246c.945-2.885 1.586-5.379 1.423-5.542-.669-.669-18.034 13.722-22.048 18.272-7.778 8.817-14.128 31.485-12.49 44.59l.449 3.592 1.991-3.07c1.096-1.69 4.741-5.825 8.1-9.192m-6.357-9c0-1.201 1.755-2.834 2.377-2.212.235.236-.203 1.06-.975 1.831-1.127 1.128-1.402 1.202-1.402.38m6.114-19.652c-.379-.612.45-1.406 2.675-2.56.791-.412 1.439-.504 1.439-.206 0 .872-3.734 3.382-4.114 2.766m-27.879 7.413c10.4-20.952 9.906-19.426 5.598-17.313l-3.383 1.659.264 4.137c.162 2.55-.012 4.413-.454 4.855-.53.53-.716-.401-.716-3.566 0-5.075.25-5.01-5.752-1.492l-4.762 2.792.165 10.153c.09 5.585-.09 11.664-.401 13.51-.963 5.711.172 3.94 9.441-14.735m195.02 15.263c-2.935-7.721-7.338-34.5-8.51-51.761l-.777-11.44-3.516 2.996c-10.798 9.2-21.977 26.245-20.483 31.23 4.174 13.934 14.65 25.36 26.876 29.318 5.295 1.714 7.155 1.614 6.41-.343m-25.588-18.531c0-2.907 7.737-16.148 8.985-15.377.332.206-.246 1.436-1.284 2.733-2.15 2.686-6.422 10.642-6.422 11.957 0 .481-.288 1.053-.64 1.27-.351.217-.639-.045-.639-.583m10.882-18.754c.01-.264.563-1.195 1.235-2.068 1.592-2.072 2.435-1.234.891.885-1.154 1.585-2.154 2.141-2.126 1.183m28.312 36.734c3.955-1.81 7.755-5.025 10.325-8.733l1.765-2.546-1.919-2.42c-6.366-8.028-28.908-26.652-28.908-23.882 0 4.616 2.119 13.805 3.373 14.629 2.06 1.353 11.969 11.506 11.969 12.265 0 1.34-1.097.536-3.412-2.5-1.318-1.729-4.013-4.523-5.989-6.211l-3.592-3.07.44 2.856c.242 1.57 1.475 7.134 2.74 12.365l2.302 9.51 3.718-.337c2.045-.185 5.28-1.052 7.188-1.926m-119.61-8.128c4.57-6.234 13.605-14.827 19.826-18.858 2.752-1.782 5.068-3.761 5.238-4.474.167-.704.833-4.658 1.48-8.789l1.174-7.51-1.298.4c-4.16 1.283-12.1 6.26-16.391 10.272-1.73 1.619-3.332 2.758-3.559 2.53-1.477-1.476 14.049-12.355 20.776-14.557.843-.276 2.984-8.774 2.366-9.391-.787-.788-10.354 4.718-16.477 9.482-.967.753-1.758 1.06-1.758.685 0-1.263 7.3-6.45 13.236-9.405 5.596-2.785 8.623-6.088 7.034-7.677-.317-.317-6.81 3.485-11.822 6.922-1.506 1.034-3.089 1.757-3.516 1.608-.813-.283 9.058-6.957 13.45-9.093 2.377-1.157 7.64-13.502 6.32-14.823-.729-.728-21.016 15.907-25.85 21.197-7.278 7.965-13.29 24.52-14.862 40.934-.614 6.41-.176 16.816.668 15.854.247-.282 2.031-2.67 3.965-5.307m.51-19.245c0-1.155 2.368-3.53 2.945-2.953.209.209-.368 1.187-1.283 2.173-1.189 1.283-1.662 1.505-1.662.78m8.505-24.564c1.546-1.36 3.64-2.12 3.64-1.321 0 .349-4.437 2.945-4.99 2.92-.244-.012.364-.73 1.35-1.599m-35.256 27.416c-2.792-8.387-5.729-16.971-6.525-19.076l-1.448-3.825-1.183 3.48-1.183 3.479 3.325 3.367c1.829 1.852 3.12 3.572 2.868 3.823-.25.251-1.84-.905-3.53-2.57l-3.073-3.027-1.387 5.06c-1.482 5.41-1.732 7.783-.82 7.783.986 0 12.698 11.437 15.194 14.838 3.57 4.863 3.315 3.346-2.238-13.332m-86.455 7.982c3.02-2.165 5.741-4.155 6.047-4.423.933-.817-9.768-3.822-15.066-4.23-2.743-.212-4.987-.63-4.987-.93 0-1.402 10.231.04 17.111 2.413l4.646 1.603 3.546-2.219 3.546-2.218-3.717-1.397c-2.044-.768-6.09-1.722-8.99-2.12-2.902-.399-5.275-.986-5.275-1.305 0-1.014 7.756.228 13.612 2.18 5.352 1.784 5.698 1.823 7.241.811 2.097-1.373 1.588-1.64-6.449-3.374-3.504-.757-6.525-1.545-6.712-1.752-.597-.661 6.27.345 11.685 1.712l5.235 1.32 5.114-2.702 5.114-2.703-2.238-.477c-5.085-1.084-22.994-2.588-26.934-2.261-11.336.94-29.231 10.747-38.884 21.31-3.917 4.285-3.963 4.19 1.604 3.32 5.013-.785 21.897-.353 24.9.637 3.364 1.108 4.25.82 9.851-3.195m-22.636-8.848c.217-.352 1.241-.64 2.275-.64s1.88.288 1.88.64c0 .351-1.024.639-2.275.639-1.354 0-2.115-.26-1.88-.64m19.504-8.881c-.876-.244-1.307-.612-.96-.82.893-.53 4.789.14 4.789.824 0 .645-1.502.644-3.83-.004zm250.177 16.057c4.378-13.857 3.791-21.185-3.244-40.552l-2.389-6.578-7.689-7.696c-6.684-6.69-18.191-15.637-20.114-15.637-.662 0-1.262 5.736-1.394 13.31l-.103 5.959 5.682 3.72c6.15 4.027 14.263 11.117 13.556 11.847-.24.249-1.966-1.025-3.835-2.83-3.657-3.532-13.981-10.91-15.266-10.91-.58 0-.678 1.114-.376 4.315.224 2.373.41 5.753.414 7.51.01 3.116.083 3.246 3.036 5.112 2.76 1.743 7.935 5.83 12.469 9.845.967.856 1.758 2.001 1.758 2.545 0 .623-1.125-.09-3.037-1.924-3.946-3.785-10.109-8.688-12.431-9.889l-1.833-.948.38 4.342c.58 6.641.719 6.968 3.697 8.713 5.423 3.179 14.927 11.015 21.534 17.757 8.065 8.229 7.269 8.056 9.185 1.989m-11.066-28.999c-1.425-2.338-1.684-3.412-.671-2.786.889.55 2.722 4.196 2.314 4.603-.183.183-.922-.635-1.643-1.817m69.558 13.352c-7.356-18.368-14.958-46.854-16.892-63.294-.598-5.084-.888-5.037-5.893.955-7.755 9.284-13.394 18.907-17.1 29.182l-1.625 4.503 2.027 4.02c8.643 17.142 22.792 27.784 37.16 27.948l3.667.043zm-30.6-15.788c0-1.707 3.454-11.058 5.312-14.377 3.265-5.837 3.845-4.942.77 1.187-1.503 2.993-3.24 7.322-3.863 9.619-.963 3.56-2.22 5.58-2.22 3.57m9.589-22.149c0-.693 2.69-4.173 2.993-3.87.455.454-1.662 4.251-2.37 4.251-.343 0-.623-.171-.623-.38m29.45 40.264c8.368-2.481 16.077-9.25 18.695-16.417 1.092-2.99-31.44-26.662-36.64-26.662-.836 0-.845-.082.67 5.966 2.314 9.237 2.152 8.968 7.511 12.488 5.451 3.58 12.557 10.312 10.885 10.312-.566 0-1.18-.393-1.365-.875-.657-1.713-13.915-11.748-13.856-10.488.057 1.214 7.919 23.485 9.033 25.587.723 1.365.76 1.366 5.066.09m-147.958-6.75c-5.505-17.952-13.718-41.443-14.49-41.443-.431 0-2.524 6.392-2.524 7.709 0 .486 1.637 2.539 3.639 4.561 2.002 2.023 3.447 3.87 3.213 4.104-.235.235-1.815-1.052-3.512-2.86-4.08-4.346-4.101-4.334-6.118 3.447l-1.745 6.733 2.102 1.713c4.77 3.889 14.264 13.554 17.28 17.593 3.98 5.328 4.214 5.159 2.155-1.556m27.872-10.168c3.343-4.438 10.173-11.454 14.007-14.389 1.711-1.31 3.24-18.804 1.643-18.804-1.466 0-8.359 5.284-13.138 10.072-5.935 5.946-7.594 6.695-2.843 1.285 3.985-4.538 8.176-8.125 12.896-11.039l3.798-2.344.448-4.458c.246-2.453.295-4.611.109-4.798-.56-.56-7.833 4.676-12.289 8.843-2.29 2.143-4.373 3.68-4.627 3.417-.655-.678 6.96-7.49 12.643-11.31 4.331-2.912 4.83-3.463 5.157-5.714.2-1.37.24-2.492.092-2.492-.423 0-5.166 3.735-9.592 7.554-2.213 1.908-4.195 3.299-4.405 3.089-.47-.471 3.039-3.718 9.53-8.817 4.133-3.246 5.005-4.258 5.347-6.208.225-1.282.78-4.344 1.232-6.805 1.115-6.065 1.217-6.101-7.27 2.569-16.77 17.131-20.159 22.864-23.552 39.839-1.868 9.345-1.292 31.61.919 35.468.165.29 1.655-1.89 3.31-4.843 1.656-2.952 4.62-7.504 6.585-10.115m-8.434-10.02c.01-.264.563-1.194 1.234-2.068 1.592-2.072 2.436-1.234.892.886-1.155 1.584-2.155 2.14-2.126 1.182m4.46-23.787c0-.942 2.675-3.221 3.779-3.221.633 0 .236.68-1.119 1.917-2.257 2.062-2.66 2.26-2.66 1.304m144.909 27.74c5.111-19.69-2.985-46.316-17.894-58.845-9.356-7.862-24.898-17.503-28.216-17.503-.652 0-.162 17.704.575 20.775.193.804 1.441 1.727 3.365 2.486 6.373 2.516 21.79 12.472 20.156 13.017-.406.135-2.261-.9-4.123-2.3-6.02-4.527-17.937-11.011-18.747-10.2-.18.178.183 3.876.805 8.217l1.131 7.893 6.752 3.868c8.849 5.07 15.21 9.608 14.483 10.334-.223.224-2.36-1.03-4.748-2.784-8.688-6.386-16.608-10.36-15.935-7.997.176.615.646 2.845 1.046 4.954.4 2.11.862 4.31 1.025 4.888.164.58 3.237 2.56 6.828 4.4 9.732 4.989 25.735 16.153 30.136 21.023 1.71 1.892 2.413 1.426 3.36-2.227m-15.94-33.165c-2.547-3.193-2.115-4.34.495-1.312 1.212 1.406 2.208 2.772 2.213 3.036.021 1.045-1.034.373-2.707-1.724m-239.24 28.426c11.764-2.475 11.84-2.545 5.488-5.105l-5.139-2.071-5.513 1.994c-6.321 2.288-10.498 3.334-10.498 2.63 0-.268 2.949-1.414 6.552-2.548 7.57-2.383 8.333-2.876 6.055-3.914-1.429-.651-2.376-.45-7.031 1.5-5.789 2.423-11.888 4.029-13.32 3.507-.511-.187-.075-.512 1.032-.77 3.483-.811 12.113-3.68 14.034-4.664l1.89-.968-3.735-1.888-3.734-1.888-4.227 1.93c-5.835 2.663-17.336 5.416-17.33 4.148 0-.295 2.374-1.006 5.273-1.58 5.478-1.085 11.55-3.144 13.523-4.587 1.027-.751.514-1.21-5.07-4.523l-6.212-3.688-6.475 1.73c-5.37 1.434-8.258 1.783-16.91 2.043l-10.434.313 1.804 1.896c6.666 7.003 20.353 14.518 32.489 17.838 6.242 1.707 15.065 1.279 27.488-1.335m-24.612-.572c0-.396.504-.723 1.12-.728.614-.005 1.837-.188 2.716-.407 1.158-.288 1.417-.201.939.317-.968 1.049-4.775 1.7-4.775.818m-19.177-7.751c0-.352.863-.64 1.918-.64s1.917.288 1.917.64c0 .351-.863.639-1.917.639s-1.918-.288-1.918-.64m55.615 2.848c0-.575-11.756-19.893-16.906-27.78-5.077-7.775-5.336-7.862-3.84-1.278.52 2.286 1.13 8.006 1.356 12.713l.411 8.557 5.41 2.5c2.977 1.375 5.477 2.414 5.557 2.31s-.04-2.008-.265-4.23c-.225-2.22-.215-4.158.021-4.304.574-.354 1.225 3.06 1.225 6.426 0 2.632.095 2.758 3.036 4.024 3.279 1.41 3.995 1.601 3.995 1.062m173.477-3.647c3.647-10.39 10.638-21.869 18.34-30.116l4.574-4.898-.71-6.015c-.39-3.308-.709-7.62-.709-9.581 0-2.257-.269-3.567-.733-3.567-2.235 0-11.854 9.525-15.978 15.821-2.257 3.447-3.745 4.893-3.745 3.641 0-2.153 12.307-16.097 17.774-20.138l2.112-1.562-.194-5.625-.194-5.625-4.277 3.53c-2.352 1.941-6.21 5.84-8.574 8.664-4.497 5.372-6.24 6.42-3.07 1.846 2.404-3.47 9.636-10.729 13.333-13.384 2.773-1.991 2.907-2.233 2.907-5.23v-3.142l-2.81 2.474c-1.546 1.36-4.605 4.477-6.797 6.926l-4.47 4.988c-.264.294-.669.231-.898-.14-.23-.37 3.028-4.197 7.238-8.503l7.655-7.83.447-7.852c.246-4.32.267-7.854.047-7.854-1.384 0-19.14 24.034-22.67 30.685-7.6 14.319-8.465 40.194-2.046 61.208 1.69 5.532 1.924 5.619 3.448 1.279m-3.435-25.123c0-.193.439-1.2.975-2.237 1.383-2.675 2.422-2.352 1.133.351-.918 1.926-2.108 2.99-2.108 1.886m1.923-26.966c-.01-1.114 3.63-5.057 4.17-4.519.244.245-.593 1.539-1.86 2.876s-2.307 2.076-2.31 1.643m-25.169 48.253c-3.567-8.338-6.978-15.54-13.551-28.606l-7.556-15.023-.776 3.196c-1.408 5.807-1.312 6.086 3.257 9.468 2.286 1.692 4.156 3.346 4.156 3.676 0 .927-1.03.71-1.963-.413-1.167-1.406-6.371-4.93-6.738-4.562-1.344 1.343-1.88 14.04-.627 14.82.735.456 3.063 1.908 5.172 3.226 4.164 2.6 12.554 9.523 16.59 13.688 3.05 3.146 3.168 3.177 2.036.53m146.268.959c-8.146-18.566-17.055-49.796-20.471-71.756-1.464-9.41-1.206-9.29-6.634-3.071-8.535 9.78-15.618 21.931-20.177 34.614l-1.802 5.014 1.973 4c9.787 19.848 26.252 32.146 43.218 32.283 3.942.031 4.334-.078 3.893-1.084m-36.087-20.968c-.01-2.263 3.227-11.398 5.631-15.913 3.583-6.73 4.237-5.745.772 1.164-1.669 3.328-3.55 8.014-4.179 10.416-1.185 4.521-2.219 6.535-2.224 4.333m11.314-26.546c1.257-2.14 2.754-3.636 2.75-2.746 0 1.023-2.526 4.713-3.22 4.713-.385 0-.18-.86.47-1.967m35.248 46.676c7.281-2.52 13.325-7.616 17.2-14.5 2.793-4.966 2.778-5.018-2.87-9.845-11.09-9.477-25.708-19.102-35.78-23.557l-2.87-1.27.422 1.752c2.936 12.158 4.446 16.342 6.26 17.344 5.81 3.21 17.739 13.074 16.865 13.948-.198.198-2.068-1.222-4.156-3.155-4.272-3.956-12.727-9.793-13.322-9.199-.558.558 3.593 12.488 10.108 29.05.662 1.685 1.88 1.6 8.143-.568m-324.632-16.582c-1.954-12.884-3.84-16.737-14.033-28.651-5.443-6.362-12.857-10.772-21.642-12.873-4.286-1.025-4.256-1.073-2.745 4.377 1.894 6.834 3.659 20.017 3.873 28.92.014.573 1.607 2.236 3.54 3.696l3.517 2.655-.022-4.016c-.012-2.209-.43-6.307-.93-9.107-.847-4.754-.837-6.18.035-5.308.723.722 2.152 10.51 2.173 14.885l.022 4.487 4.955 3.345c2.725 1.839 5.17 3.344 5.433 3.344.784 0 .5-10.841-.406-15.523-.58-2.991-.624-4.265-.146-4.105.977.325 1.68 4.655 2.19 13.488l.44 7.605 7.032 4.074 7.032 4.073.204-5.285c.113-2.908-.122-7.444-.522-10.08zm-19.167-19.784c-.43-1.037-.64-2.26-.468-2.717.258-.686 2.373 3.112 2.373 4.262 0 1.068-1.238.064-1.905-1.545m-17.66 29.35c6.856-.785 16.481-3.113 16.012-3.872-.186-.301-2.843-2.27-5.904-4.377-9.27-6.378-18.542-14.137-27.454-22.971-9.876-9.791-8.724-9.221-10.18-5.035-3.084 8.872-.885 20.243 5.842 30.205l3.885 5.754 3.5.375c5.772.619 8.336.605 14.299-.078m-19.75-11.263-2.716-.577c-.791-.169-1.439-.559-1.439-.867 0-.32 1.029-.32 2.398-.003 1.318.306 4.914.564 7.99.572 3.293.01 5.594.278 5.594.655 0 .622-9.122.792-11.826.22m15.343-.86c1.776-.763 3.516-.763 3.516 0 0 .352-1.08.62-2.398.595-1.923-.036-2.144-.154-1.118-.595m125.31 2.042c-.196-.197-.712 0-1.146.436-.626.631-.553.705.358.358.63-.24.985-.598.788-.794m-4.834-3.297c6.244-1.811 21.355-7.412 24.636-9.131 2.11-1.106 2.647-.855-6.482-3.031l-5.84-1.393-2.504 1.58c-5.341 3.372-15.195 7.978-14.796 6.916.118-.314 3.523-2.268 7.566-4.341 7.715-3.956 8.37-4.661 5.12-5.503-1.73-.449-2.562-.136-6.37 2.396-4.65 3.09-13.471 7.37-15.193 7.37-1.61 0-.627-.617 4.62-2.898 5.212-2.266 13.369-7.276 12.789-7.856-.193-.193-2.266-.972-4.607-1.73l-4.256-1.379-3.882 2.696c-6.956 4.832-19.544 10.046-19.544 8.096 0-.282 2.085-1.177 4.634-1.988 5.368-1.707 12.002-5.06 15.105-7.635l2.16-1.791-4.077-1.506a165 165 0 0 1-8.051-3.269l-3.973-1.762-4.977 2.423c-8.559 4.166-17.03 6.565-27.939 7.911l-6.342.783 4.424 2.956c18.434 12.319 40.828 17.003 57.779 12.086m-14.68-1.24c0-.316.935-.945 2.078-1.396s2.293-.935 2.557-1.075.48.004.48.32-1.017 1.059-2.26 1.651c-2.603 1.242-2.855 1.286-2.855.5m-23.652-5.815c0-.352.88-.64 1.955-.64 1.141 0 1.791.267 1.56.64-.217.352-1.097.64-1.955.64s-1.56-.288-1.56-.64m305.155 2.309c2.81-11.187 2.81-23.554 0-32.611-2.48-7.992-12.55-27.885-15.44-30.503-10.458-9.474-20.008-16.048-31.134-21.434l-7.032-3.404-.218 2.709c-.12 1.489.13 7.166.554 12.616l.773 9.908 6.63 3.13c8.207 3.873 21.528 12.564 20.632 13.46-.217.217-3.668-1.822-7.67-4.532-9.195-6.225-18.694-10.853-18.971-9.242-.175 1.013 2.236 18.044 2.587 18.287.087.06 2.964 1.572 6.394 3.36 7.312 3.813 17.71 10.964 17.725 12.19.01.522-1.046.059-2.706-1.191-8.503-6.402-20.935-13.462-20.935-11.889 0 .545.605 3.834 1.345 7.31l1.346 6.321 6.476 3.133c10.988 5.315 25.656 15.225 34.302 23.175 4.39 4.036 4.122 4.076 5.345-.793zm-18.726-38.789c-1.15-1.43-1.89-2.796-1.646-3.036.439-.433 4.771 4.232 4.79 5.156.022 1.126-1.196.304-3.144-2.12m-363.469 32.804c-.887-12.765-4.074-27.569-5.973-27.744-6.117-.564-13.214 2.203-17.004 6.631-2.879 3.364-3.406 2.263 5.146 10.736l7.41 7.34-.458-2.876c-.485-3.044-1.832-8.514-2.558-10.388-.241-.62-.142-1.118.222-1.118.901 0 2.662 5.534 3.544 11.136.729 4.628.745 4.657 4.882 8.26 5.3 4.62 5.249 4.64 4.79-1.977m141.498-2.688c-.529-1.515-26.976-32.223-30.793-35.753l-1.648-1.524 2.092 5.36c2.755 7.056 4.19 12.286 5.507 20.062l1.082 6.393 6.82 2.011c7.762 2.29 7.498 2.463 5.86-3.826-1.13-4.337-1.123-4.258-.375-4.258.322 0 1.095 2.23 1.718 4.954 1.366 5.974.813 5.21 4.516 6.228 3.79 1.042 5.502 1.158 5.221.353m161.429-8.744c4.907-12.859 12.812-25.542 22.026-35.337l3.254-3.46-.922-8.686c-.507-4.777-.925-9.765-.93-11.083-.01-2.982-.094-2.978-4.247.226-4.782 3.69-10.926 10.363-14.527 15.78-2.85 4.286-5.263 6.454-3.531 3.172 3.354-6.358 11.478-15.646 17.91-20.477l4.07-3.057-.203-6.372c-.191-6.033-.267-6.337-1.417-5.721-2.049 1.096-12.44 11.276-15.317 15.006-1.494 1.936-2.985 3.52-3.314 3.52-2.07 0 8.863-12.398 15.8-17.918l4.13-3.287v-7.133l-3.995 3.781c-2.197 2.08-5.863 5.867-8.145 8.416-2.283 2.55-4.369 4.635-4.635 4.635-1.368 0 .255-2.024 8.07-10.06l8.554-8.798.555-9.43c.306-5.185.379-9.428.162-9.428-1.674 0-21.614 27.093-26.347 35.798-7.549 13.884-9.086 44.712-3.246 65.083 1.747 6.093 3.532 11.127 3.838 10.822.107-.108 1.19-2.804 2.407-5.992m-4.248-26.861c-.447-.723 1.398-4.697 2.18-4.697.747 0 .738.045-.627 2.85-.653 1.342-1.352 2.173-1.553 1.847m1.46-31.158c0-1.1 3.438-4.862 4.444-4.862.404 0-.348 1.294-1.67 2.877-2.66 3.182-2.773 3.263-2.773 1.985M1117.093 150.1c7.388-1.097 17.762-4.254 23.479-7.144l3.684-1.863-9.185-4.557c-15.426-7.652-36.755-21.242-44.189-28.156-2.263-2.105-2.88-1.482-3.738 3.772-1.925 11.798 2.59 23.441 13.431 34.63 4.852 5.008 4.973 5.033 16.518 3.318m-20.933-11.788c0-.36 1.793-.64 4.099-.64 2.254 0 6.334-.427 9.065-.95 4.547-.87 6.128-.868 5.255.005-1.481 1.481-18.419 2.939-18.419 1.585m21.095-2.488c0-.313.693-.743 1.54-.956.845-.212 1.996-.562 2.556-.777s1.018-.1 1.018.255c0 .354-.905.96-2.013 1.347-2.44.85-3.1.878-3.1.131m52.42 10.468c0-5.187-4.362-20.097-8.557-29.254-2.841-6.2-16.612-19.063-24.91-23.268-5.074-2.571-23.427-6.471-23.427-4.978 0 .13.99 2.488 2.2 5.241 4.207 9.568 6.978 18.488 9.028 29.06l1.078 5.556 4.441 2.334c2.443 1.284 4.61 2.165 4.817 1.959.543-.543-.894-6.818-3.134-13.688-1.068-3.274-1.776-6.12-1.572-6.323.902-.903 4.5 10.172 5.96 18.35l.515 2.876 6.712 3.324c5.212 2.581 6.76 3.11 6.924 2.37.335-1.508-1.725-10.935-3.66-16.752-.97-2.918-1.548-5.438-1.284-5.601 1.07-.661 5.252 13.34 6.074 20.332l.427 3.632 4.23 1.625c14.453 5.552 14.137 5.48 14.137 3.205m-28.54-34.558c-2.009-2.896-2.27-3.467-1.587-3.467.901 0 3.427 3.708 3.13 4.595-.135.408-.83-.1-1.543-1.128m192.788 25.827c-6.338-10.504-10.703-17.337-19.593-30.67l-5.618-8.425-.432 2.823c-.238 1.553-.452 4.117-.477 5.7l-.045 2.876 3.993 2.094c4.707 2.468 6.6 3.822 6.077 4.345-.209.21-2.327-.795-4.707-2.23s-4.52-2.61-4.756-2.61c-.508 0-1.24 7.167-1.247 12.212v3.583l6.872 3.34c7.63 3.707 14.972 8.438 21.256 13.694 5.509 4.61 5.502 4.574-1.319-6.732zm-210.678-12.194c-1.804-10.113-5.673-22.632-9.702-31.392l-2.31-5.022-2.818.386c-9.885 1.355-21.173 12.279-16.95 16.403 2.159 2.11 17.662 13.424 17.97 13.116.379-.379-2.446-8.244-4.318-12.024-1-2.02-1.564-3.828-1.254-4.02.785-.485 3.987 6.096 5.763 11.846 1.792 5.8 1.625 5.599 7.959 9.55 6.082 3.794 6.133 3.804 5.66 1.157m119.304-2.06c6.436-1.862 22.146-7.142 22.861-7.683.092-.07-2.997-1.039-6.865-2.153l-7.032-2.027-3.363 1.89c-4.479 2.518-14.006 6.558-14.44 6.124-.53-.53.59-1.31 3.496-2.432 4.85-1.873 12.34-5.742 12.043-6.222-1.08-1.746-4.771-1.219-8.713 1.244-3.56 2.224-10.768 5.445-15.087 6.741-2.489.747-1.571-.79.96-1.608 3.886-1.254 10.436-4.337 13.795-6.493l3.127-2.006-4.697-1.723-4.698-1.722-1.926 1.45c-4.046 3.044-14.745 7.684-20.145 8.736-2.494.486-.653-1.179 2.077-1.878 6.393-1.636 19.163-7.904 18.155-8.911-.194-.195-3.83-1.901-8.08-3.792l-7.726-3.439-3.012 1.52c-7.453 3.763-19 6.597-29.84 7.324l-6.413.43 4.474 3.33c2.462 1.83 7.208 4.75 10.548 6.488 8.706 4.53 15.235 6.59 29.406 9.279 4.384.831 13.302-.211 21.095-2.466m-19.177-.568c0-.453 4.292-2.326 5.329-2.326.393 0 .286.412-.247.945-.967.967-5.082 2.085-5.082 1.38m-23.014-6.8c0-.352 1.024-.64 2.276-.64 1.354 0 2.115.259 1.88.64-.218.35-1.241.638-2.275.638-1.035 0-1.88-.287-1.88-.639m63.845-5.275c-7.43-10.67-30.82-39.501-29.69-36.597 3.328 8.56 5.981 19.242 6.53 26.296l.405 5.201 6.783 2.252c7.859 2.609 7.985 2.532 6.151-3.775-.572-1.97-.865-3.759-.649-3.975.72-.72 1.557 1.445 2.33 6.026l.766 4.536 3.568.995c5.237 1.461 5.453 1.407 3.806-.959m-72.474-6.536c7.88-1.285 22.711-6.034 22.684-7.264-.01-.232-3.857-2.533-8.56-5.112-13.606-7.461-29.914-18.659-40.973-28.132-4.714-4.038-4.413-4.06-5.449.379-2.789 11.956 1.488 25.416 11.723 36.901l3.717 4.17 5.552-.002c3.054-.001 8.141-.425 11.306-.94m-23.493-11.6c-2.497-.75-.816-1.201 4.475-1.201 3.076 0 7.247-.237 9.269-.526 4.087-.584 5.253.408 1.279 1.088-3.485.597-13.716 1.031-15.023.639m19.977-2.031c0-.337 1.15-.905 2.557-1.262 2.218-.563 3.494-.133 2.077.7-1.196.704-4.634 1.12-4.634.562m51.541 9.512c-1.745-20.93-11.73-38.256-28.528-49.506-5.092-3.41-23.756-8.828-25.254-7.33-.15.15.756 2.992 2.014 6.314 4.051 10.699 7.898 26.298 7.898 32.026 0 1.589 7.052 6.937 9.146 6.937 1.054 0-.951-11.362-3.032-17.18-1.174-3.282-1.173-3.276-.413-3.276 1.19 0 4.882 13.635 5.276 19.481.158 2.347.252 2.425 7.057 5.837 4.129 2.071 6.896 3.136 6.894 2.655-.01-2.06-2.02-12.786-3.18-16.938-1.446-5.178-1.606-6.49-.679-5.563.943.943 3.714 12.101 4.515 18.18.394 2.99.926 5.65 1.182 5.914.378.389 16.39 7.31 17.274 7.466.139.025.062-2.233-.17-5.017m-27.197-33.529c-1.423-2.302-1.615-2.965-.852-2.953.467.008 3.356 4.121 3.356 4.778 0 1.023-1.354.037-2.504-1.825m201.61 21.2c-9.548-15.551-15.261-24.406-25.9-40.142l-5.401-7.99-.417 3.515c-.228 1.934-.444 5.022-.479 6.861l-.063 3.346 3.356 1.695c4.468 2.256 9.205 5.54 8.386 5.812-.361.12-2.823-1.083-5.47-2.674-5.93-3.565-6.247-3.574-6.37-.177-.56 15.501-.548 15.575 2.903 16.948 8.774 3.491 21.828 11.542 30.117 18.574 5.887 4.995 5.873 4.877-.662-5.768m-219.562-6.868c0-7.327-8.963-37.768-11.111-37.74-7.384.098-18.085 6.77-20.953 13.063-.835 1.833-.077 2.626 10.77 11.277 6.243 4.978 7.87 6.043 7.87 5.147 0-1.345-2.808-9.568-4.222-12.362-.835-1.651-1.28-3.15-.989-3.33 1.162-.718 5.336 9.286 6.245 14.969.583 3.645 12.39 12.199 12.39 8.976m102.146-4.554c9.26-1.024 34.035-6.11 34.004-6.982-.01-.178-3.411-1.7-7.567-3.381l-7.556-3.059-2.913 1.25c-5.108 2.189-15.354 5.257-16.736 5.01-1.591-.283-1.93-.144 8.046-3.313 9.688-3.078 10.389-3.576 7.11-5.054l-2.487-1.122-4.947 2.285c-4.629 2.138-12.774 4.776-17.527 5.677-2.522.478-2.82-.663-.32-1.222 6.636-1.481 12.025-3.217 16.329-5.259l4.98-2.363-4.848-2.474-4.848-2.474-4.927 2.246c-8.632 3.933-21.81 7.171-23.264 5.716-.424-.424.72-.793 3.416-1.101 5.603-.641 13.838-3.109 18.917-5.67l4.259-2.146-2.21-1.128c-1.215-.62-5.019-2.846-8.452-4.947l-6.242-3.82-6.017 1.707c-10.998 3.12-32.615 4.956-38.049 3.231-4.88-1.549 9.049 10.676 18.195 15.97 11.31 6.544 26.304 11.842 36.942 13.051.278.032 3.298-.251 6.712-.628m-13.29-4.327c0-.459 4.134-2.02 5.349-2.02 1.407 0 0 1.332-1.992 1.885-2.913.81-3.356.827-3.356.135m-25.25-10.33c-.239-.385.633-.639 2.2-.639 1.427 0 2.594.288 2.594.64 0 .351-.99.639-2.2.639-1.209 0-2.377-.288-2.594-.64m69.243-2.716c-7.19-12.362-12.57-20.995-23.376-37.501-2.685-4.101-3.673-3.932-2.045.35 1.535 4.039 3.14 16.489 3.203 24.869l.067 8.68 6.748 3.16c9.286 4.347 9.363 4.285 7.438-5.95-.396-2.105.754-2.385 1.274-.312.2.796.417 3.384.482 5.752s.436 4.554.825 4.858c.763.598 8.72 3.877 9.478 3.907.254.01-1.588-3.506-4.093-7.813zm500.879 176.744c-.403-.259-1.21-3.059-1.793-6.223-1.97-10.675-5.468-19.498-18.214-45.935-14.044-29.129-16.928-49.331-10.564-73.99 7.277-28.196 32.726-56.348 58.362-64.562l4.685-1.5 4.904 2.503c18.162 9.272 29.95 34.974 27.568 60.113-1.785 18.84-9.766 37.917-26.739 63.92-21.213 32.5-28.18 44.913-32.976 58.753-2.377 6.86-3.341 8.134-5.233 6.92m2.964-37.547c.736-7.383 1.498-15.15 1.693-17.26l.354-3.835-3.418 5.257c-1.88 2.892-3.744 5.768-4.142 6.393-.398.624-.932.937-1.186.695s1.538-3.695 3.984-7.671 4.654-7.597 4.908-8.045c.355-.624 3.579-22.268 3.544-23.797-.023-1.025-10.666 14.623-14.023 20.616-1.756 3.135-3.215 4.636-3.215 3.307 0-1.223 9.068-15.545 14.763-23.317 3.04-4.148 3.084-4.28 4.726-14.063 2.055-12.246 6.541-35.953 7.373-38.962 1.578-5.707 1.384-5.547-11.218 9.269-20.16 23.703-20.758 24.362-20.758 22.905 0-.294 2.1-2.979 4.666-5.966 12.782-14.88 26.554-31.21 27.764-32.92.858-1.214 2.316-6.14 3.972-13.425 1.438-6.328 3.016-13.016 3.505-14.862.49-1.846.766-3.356.615-3.356-.95 0-13.448 7.033-17.69 9.956-2.806 1.932-5.275 3.34-5.487 3.127-.822-.822 7.148-6.149 16.734-11.183l7.322-3.846.977-3.877.976-3.876-1.7.41c-25.777 6.202-53.949 43.588-56.737 75.292-.514 5.847-.212 6.081 2.058 1.598 3.553-7.019 13.79-20.942 19.364-26.34 3.524-3.41 3.338-1.623-.22 2.113-6.472 6.797-13.983 17.318-18.943 26.532l-2.703 5.023.376 6.171c.613 10.055.767 10.158 5.511 3.67 3.466-4.74 5.165-6.443 5.165-5.178 0 .18-2.014 3.094-4.475 6.477s-4.475 6.53-4.475 6.993c0 3.754 5.46 17.435 14.415 36.128 7.238 15.106 11.792 25.803 12.826 30.128.57 2.38.46 3.168 2.799-20.28m-21.09-42.396c0-.68 5.854-9.203 8.821-12.84 3.481-4.27 3.214-1.985-.308 2.64-1.694 2.223-4.086 5.538-5.317 7.367-2.084 3.098-3.196 4.083-3.196 2.833m16.03-20.57c-.01-1.155 6.304-9.203 6.814-8.692.4.4-1.979 4.002-4.897 7.413-1.138 1.331-1.915 1.85-1.918 1.279m3.148-43.31c0-.84 6.45-6.068 6.91-5.6.243.246-.997 1.71-2.755 3.25-3.12 2.737-4.156 3.322-4.155 2.35m-7.671-11.157c0-1.012 5.293-5.623 6.453-5.623.97 0-.827 2.038-4.056 4.599-1.534 1.217-2.397 1.585-2.397 1.024m15.643 127.981 4.62-9.27-1.133-3.195c-1.289-3.638-1.459-4.795-.704-4.795.29 0 .937 1.317 1.438 2.927 1.254 4.027 1.25 4.03 7.726-6.251l5.758-9.14-.765-2.558c-.42-1.406-2.026-5.26-3.569-8.564-3.114-6.668-3.043-6.459-2.196-6.459.668 0 5.179 9.128 6.397 12.945.42 1.319.998 2.397 1.285 2.397.828 0 14.738-21.787 17.845-27.95l1.362-2.701-2.288-5.717c-1.259-3.144-3.722-8.217-5.475-11.274-2.81-4.899-3.648-7.483-1.842-5.678.882.882 8.62 16.157 9.507 18.767.963 2.834 1.434 2.22 5.387-7.036 15.247-35.697 7.951-72.353-16.927-85.045-3.313-1.69-3.09-2.062-6.127 10.215l-2.59 10.473 4.974 8.705c9.075 15.878 19.846 36.381 19.846 37.778 0 1.51-1.17.463-2.3-2.06-4.228-9.427-22.418-42.462-23.039-41.841-.47.47-6.105 26.214-8.562 39.12l-2.434 12.784 2.258 5.114a6016 6016 0 0 1 4.502 10.228 772 772 0 0 0 4.146 9.27c2.914 6.363 4.416 10.358 4.037 10.737-.515.515-.32.916-7.711-15.851-3.797-8.614-7.103-15.894-7.347-16.177-.404-.47-2.583 11.901-4.569 25.941l-.793 5.61 2.406 4.299c4.245 7.583 7.58 14.757 7.259 15.613-.172.457-1.36-1.395-2.638-4.117-4.4-9.364-6.913-13.165-7.492-11.333-1.36 4.302-6.5 57.359-5.263 54.317.215-.527 2.47-5.13 5.01-10.228m7.37-51.088c0-.323-.175-1.042-.388-1.598-.641-1.67.764-1.138 1.55.587.598 1.312.56 1.598-.217 1.598-.52 0-.945-.264-.945-.587m13.888-43.841c-1.611-2.637-2.665-4.795-2.342-4.795.798 0 4.882 5.652 5.66 7.831 1.136 3.188-.341 1.835-3.318-3.036m20.951-21.217c-3.756-6.49-3.802-6.59-3.02-6.59.805 0 7.175 10.47 7.175 11.794 0 1.314-1.392-.43-4.155-5.204m-8.184-12.098c-.98-1.623-1.678-3.262-1.551-3.642.253-.759 4.301 4.803 4.301 5.908 0 1.43-1.031.58-2.75-2.266m-213.372 3.322c-.147-.148-15.082-.469-33.188-.714-33.247-.45-34.176-.521-33.778-2.587.622-3.228 33.817-29.747 50.08-40.008 24.011-15.15 38.84-19.99 74.154-24.207 16.427-1.962 24.659-3.872 43.179-10.023l16.91-5.616 20.74-.177c11.408-.098 20.613-.06 20.457.084s-2.541 2.047-5.3 4.23c-6.734 5.326-14.246 12.907-25.36 25.588-31.52 35.97-48.067 46.124-83.78 51.409-10.967 1.623-43.043 3.092-44.114 2.02m25.819-4.849c44.495-2.584 63.877-12.271 94.635-47.302 6.328-7.208 14.899-16.485 19.045-20.616s7.19-7.492 6.763-7.469c-.427.024-3.796 1.102-7.486 2.397l-6.709 2.355-5.437 8.007c-6.835 10.065-13.287 18.522-14.133 18.522-.832 0-.376-.757 3.273-5.434 5.06-6.486 14.362-20.392 13.382-20.006-9.642 3.8-12.975 5.374-13.763 6.501-.523.748-3.239 4.811-6.036 9.03-8.577 12.937-27.72 35.422-29.044 34.116-.226-.222 2.51-3.53 6.078-7.351 10.46-11.202 27.74-34.044 26.608-35.176-.33-.33-6.718 2.462-18.46 8.072-4.95 2.364-5.79 3.025-7.601 5.974-6.067 9.875-20.412 24.831-22.992 23.972-.374-.125 1.165-1.706 3.42-3.513 7.032-5.635 20.121-21.18 18.368-21.812-2.726-.984-21.093 10.34-26.841 16.549-9.102 9.829-22.936 20.967-25.133 20.235-.406-.135 1.41-1.702 4.035-3.482 7.07-4.793 9.2-6.585 16.77-14.112 7.037-6.996 7.696-8.274 3.041-5.9-9.662 4.93-34.832 15.145-46.25 18.77-3.2 1.017-6.154 2.595-9.418 5.033-5.446 4.068-13.517 8.448-14.772 8.017-.468-.16 1.018-1.238 3.304-2.395 3.889-1.97 11.506-6.813 11.506-7.317 0-.125-2.229.468-4.954 1.316-7.43 2.313-24.82 7.115-35.638 9.84l-9.59 2.416 8.63.148c4.747.082 15.39.345 23.653.584 23.817.69 30.3.696 41.746.03m-7.865-5.668c0-.666 4.726-2.997 7.475-3.687 3.01-.755 1.34.787-2.519 2.329a345 345 0 0 0-4.474 1.808c-.265.117-.482-.085-.482-.45m33.252-10.79c.014-.596 6.127-4.635 7.013-4.635 1.427 0 .439 1.063-2.823 3.037-3.57 2.159-4.209 2.403-4.19 1.598m50.49-15.944c0-1.163 6.206-7.612 6.78-7.046.281.276-1.13 2.143-3.134 4.148-2.006 2.005-3.646 3.31-3.646 2.898m-143.651 27.577c23.854-5.96 63.111-17.753 62.184-18.68-1.139-1.14-27.197 2.797-39.3 5.936-4.719 1.224-8.722 2.083-8.897 1.908-1.893-1.894 29.522-8.119 45.283-8.973 6.299-.342 8.22-.726 13.424-2.688 10.272-3.873 39.457-17.174 38.902-17.729-.716-.715-38.234 5.84-54.622 9.545-6.422 1.451-8.11 1.593-7.114.596 1.177-1.176 37.282-8.125 55.818-10.742l10.93-1.543 8.247-4.175c4.537-2.297 7.741-4.191 7.122-4.21-2.302-.067-32.393 4.456-40.034 6.019-8.397 1.717-10.953 1.989-9.948 1.056 1.25-1.161 28.796-5.871 47.037-8.043 8.542-1.018 8.905-1.126 18.456-5.52 11.989-5.516 23.56-10.178 33.24-13.393l7.351-2.441-4.282-.042c-8.192-.081-17.004 2.122-43.342 10.834-17.02 5.63-25.14 7.303-47.944 9.881-37.45 4.234-65.717 18.496-104.877 52.916-4.268 3.751-4.78 3.773 12.366-.512m65.662-40.407c0-.555 7.096-2.71 8.921-2.71 1.95 0 .224 1.175-2.688 1.83-1.846.416-4.004.927-4.795 1.136-.79.209-1.438.094-1.438-.256M994.2 73.993c-2.461-.132-12.242-.684-21.735-1.227-9.493-.542-23.444-1.136-31.003-1.32-22.635-.548-22.792.224 4.155-20.435 37.05-28.406 57.229-36.6 99.084-40.235 17.857-1.55 24.483-2.865 44.66-8.858 4.924-1.463 6.763-1.676 14.063-1.633l8.399.049-5.754 1.504c-3.164.828-10.5 2.942-16.3 4.699-19.891 6.023-24.637 6.93-47.305 9.033-29.43 2.73-42.573 6.589-64.245 18.86-10.352 5.86-32.755 21.734-41.871 29.668l-2.238 1.947 2.238-.376c4.225-.71 30.483-6.553 38.412-8.547 15.361-3.864 34.15-9.467 33.598-10.02-1.069-1.069-25.71 1.981-37.613 4.656-3.758.844-7.155 1.535-7.548 1.535-1.202 0-.113-1.105 1.428-1.45.796-.177 3.605-.807 6.242-1.398 10.377-2.328 19.262-3.537 31.26-4.255l12.53-.75 8.63-3.177c8.353-3.076 30.871-12.527 33.102-13.894.857-.525.608-.602-1.14-.35-1.23.177-5.114.631-8.63 1.01-9.002.968-30.44 4.236-40.183 6.124-7.347 1.424-9.623 1.57-8.607.554 1.052-1.051 35.957-6.56 52.945-8.355 10.833-1.145 30.31-7.8 24.752-8.459-2.353-.278-23.485 2.105-36.11 4.072-9.28 1.446-11.91 1.603-10.962.655.846-.846 30.581-4.775 46.545-6.15 5.214-.45 8.711-1.08 10.228-1.843 4.483-2.257 21.627-8.946 31.185-12.168l9.686-3.265 7.417.18 7.417.18-4.327 3.308c-6.832 5.223-13.264 11.431-26.187 25.276-24.902 26.678-37.217 34.824-62.147 41.11-11.85 2.988-36.428 4.69-54.071 3.745m30.365-4.743c36.443-3.272 53.514-12.042 80.865-41.544 5.626-6.068 13.795-14.443 18.155-18.612 4.36-4.17 7.678-7.58 7.375-7.58-4.622 0-13.805 4.26-15.863 7.36-3.033 4.568-14.141 19-15.733 20.44-2.882 2.61-1.691.196 2.47-5.007 5.852-7.315 12.866-16.755 12.866-17.316 0-.537-1.29-.152-7.84 2.34l-4.962 1.89-4.43 6.508c-8.479 12.457-29.892 36.428-30.611 34.27-.153-.458 1.128-2.047 2.847-3.53 7.707-6.656 30.65-34.665 29.41-35.905-.13-.13-4.228 1.48-9.106 3.579-15.181 6.531-14.113 5.87-17.31 10.7-4.657 7.036-21.924 23.41-21.924 20.791 0-.339 1.942-2.134 4.315-3.989 6.549-5.118 18.757-18.634 17.745-19.646-1.374-1.374-20.84 9.323-24.783 13.619-7.278 7.93-24.025 20.716-26.188 19.995-.417-.139 1.387-1.636 4.009-3.327 8.547-5.513 24.911-19.531 22.8-19.531-.257 0-3.556 1.325-7.333 2.945-9.848 4.224-25.17 9.868-36.272 13.362-7.383 2.323-10.47 3.642-13.424 5.735-4.356 3.088-14.332 8.267-14.876 7.724-.489-.49-.368-.573 4.009-2.795 4.351-2.21 11.5-6.826 9.649-6.23-2.999.962-22.515 5.754-33.749 8.285l-12.338 2.78 4.795.38c2.637.208 8.246.543 12.465.743 4.22.201 9.685.526 12.146.722 17.134 1.368 40.637 1.758 50.82.844m-18.187-5.622c.541-.475 7.678-3.303 8.335-3.303 1.442 0-.46 1.457-3.277 2.511-3.633 1.36-6.156 1.754-5.058.792m32.25-8.955c0-.734 6.384-4.159 6.862-3.68.469.468.48.457-2.854 2.534-2.785 1.734-4.008 2.084-4.008 1.146m48.583-13.541c0-1.154 6.3-7.322 6.884-6.739.224.225-1.233 2.049-3.238 4.054-2.053 2.053-3.646 3.226-3.646 2.685m140.708-9.625c-1.543-.303-2.957-.703-3.143-.889-.836-.836.597-.963 3.466-.308 1.717.392 6.214.718 9.993.725s6.872.271 6.872.588c0 .719-13.396.629-17.188-.116m20.385.2c0-.71 2.11-1.405 4.315-1.418.79-.005 1.438.279 1.438.63 0 .352-.647.644-1.438.648s-2.086.183-2.877.395-1.438.097-1.438-.254m-235.246-5.167c0-.854 8.475-2.743 9.174-2.045.31.31-1.091.878-3.193 1.295-2.059.408-4.247.886-4.862 1.061-.616.176-1.119.035-1.119-.311m341.681-13.173c3.208-1.385 4.795-1.746 4.795-1.092 0 .754-3.514 2.044-5.37 1.972-1.103-.043-1-.2.575-.88m-76.278-5.19c-1.544-3.176-1.617-3.467-.88-3.467.76 0 3.368 5.651 2.777 6.016-.279.173-1.133-.975-1.897-2.549m75.6 1.07c.197-.317 2.443-1.206 4.992-1.976s7.32-2.684 10.601-4.254c7.749-3.707 9.079-3.27 1.658.545-7.151 3.677-18.275 7.342-17.25 5.685m-27.366-3.764c-.223-.36.64-.763 2-.933 3.668-.457 3.937.458.345 1.177-1.074.214-2.13.105-2.345-.244m11.386-.835c-.184-.297.469-.714 1.45-.926s4.314-1.084 7.406-1.937c9.018-2.486 10.276-1.799 1.73.945-5.41 1.736-10.166 2.598-10.586 1.918" style="fill:#000"/></svg>